JosefinSlab-Italic_fik.ufo
<glyph name="zero" format="1">
  <advance width="654"/>
  <unicode hex="0030"/>
  <outline>
    <contour>
      <point x="62" y="307" type="qcurve"/>
      <point x="65" y="379"/>
      <point x="114" y="509"/>
      <point x="197" y="606"/>
      <point x="309" y="663"/>
      <point x="377" y="663" type="qcurve"/>
      <point x="444" y="663"/>
      <point x="538" y="605"/>
      <point x="593" y="511"/>
      <point x="612" y="390"/>
      <point x="604" y="326" type="qcurve"/>
      <point x="594" y="251"/>
      <point x="536" y="128"/>
      <point x="451" y="40"/>
      <point x="347" y="-8"/>
      <point x="290" y="-8" type="qcurve"/>
      <point x="237" y="-8"/>
      <point x="148" y="38"/>
      <point x="86" y="121"/>
      <point x="56" y="236"/>
    </contour>
    <contour>
      <point x="123" y="329" type="qcurve"/>
      <point x="115" y="269"/>
      <point x="136" y="166"/>
      <point x="185" y="92"/>
      <point x="256" y="49"/>
      <point x="298" y="49" type="qcurve"/>
      <point x="341" y="49"/>
      <point x="425" y="93"/>
      <point x="494" y="171"/>
      <point x="540" y="279"/>
      <point x="546" y="342" type="qcurve"/>
      <point x="552" y="396"/>
      <point x="534" y="492"/>
      <point x="489" y="564"/>
      <point x="418" y="606"/>
      <point x="370" y="606" type="qcurve"/>
      <point x="317" y="606"/>
      <point x="232" y="558"/>
      <point x="169" y="479"/>
      <point x="129" y="380"/>
    </contour>
  </outline>
</glyph>
<glyph name="one" format="1">
  <advance width="296"/>
  <unicode hex="0031"/>
  <outline>
    <contour>
      <point x="81" y="598" type="line"/>
      <point x="88" y="655" type="line"/>
      <point x="232" y="655" type="line"/>
      <point x="152" y="0" type="line"/>
      <point x="92" y="0" type="line"/>
      <point x="166" y="598" type="line"/>
    </contour>
  </outline>
</glyph>
<glyph name="three" format="1">
  <advance width="476"/>
  <unicode hex="0033"/>
  <outline>
    <contour>
      <point x="106" y="541" type="line"/>
      <point x="120" y="655" type="line"/>
      <point x="456" y="655" type="line"/>
      <point x="407" y="594"/>
      <point x="306" y="472"/>
      <point x="257" y="410" type="qcurve"/>
      <point x="291" y="404"/>
      <point x="347" y="373"/>
      <point x="388" y="325"/>
      <point x="411" y="263"/>
      <point x="411" y="228" type="qcurve"/>
      <point x="411" y="180"/>
      <point x="370" y="94"/>
      <point x="303" y="30"/>
      <point x="215" y="-8"/>
      <point x="168" y="-8" type="qcurve"/>
      <point x="121" y="-8"/>
      <point x="45" y="30"/>
      <point x="19" y="62" type="qcurve"/>
      <point x="30" y="72"/>
      <point x="56" y="92"/>
      <point x="67" y="103" type="qcurve"/>
      <point x="84" y="78"/>
      <point x="139" y="49"/>
      <point x="174" y="49" type="qcurve"/>
      <point x="208" y="49"/>
      <point x="273" y="77"/>
      <point x="322" y="124"/>
      <point x="352" y="186"/>
      <point x="352" y="221" type="qcurve"/>
      <point x="352" y="250"/>
      <point x="331" y="301"/>
      <point x="293" y="339"/>
      <point x="242" y="361"/>
      <point x="212" y="361" type="qcurve"/>
      <point x="177" y="361"/>
      <point x="146" y="341" type="qcurve"/>
      <point x="195" y="406"/>
      <point x="302" y="533"/>
      <point x="352" y="598" type="qcurve"/>
      <point x="169" y="598" type="line"/>
      <point x="162" y="541" type="line"/>
    </contour>
  </outline>
</glyph>
<glyph name="nine" format="1">
  <advance width="534"/>
  <unicode hex="0039"/>
  <outline>
    <contour>
      <point x="501" y="428" type="qcurve"/>
      <point x="491" y="351"/>
      <point x="408" y="222"/>
      <point x="294" y="114"/>
      <point x="168" y="27"/>
      <point x="116" y="-8" type="qcurve"/>
      <point x="86" y="38" type="line"/>
      <point x="135" y="68"/>
      <point x="224" y="131"/>
      <point x="298" y="191"/>
      <point x="352" y="245"/>
      <point x="366" y="265" type="qcurve"/>
      <point x="346" y="242"/>
      <point x="291" y="216"/>
      <point x="260" y="216" type="qcurve"/>
      <point x="219" y="216"/>
      <point x="149" y="246"/>
      <point x="98" y="297"/>
      <point x="69" y="367"/>
      <point x="69" y="407" type="qcurve"/>
      <point x="69" y="455"/>
      <point x="109" y="540"/>
      <point x="177" y="604"/>
      <point x="265" y="641"/>
      <point x="312" y="641" type="qcurve"/>
      <point x="351" y="641"/>
      <point x="425" y="612"/>
      <point x="479" y="558"/>
      <point x="507" y="479"/>
    </contour>
    <contour>
      <point x="441" y="428" type="qcurve"/>
      <point x="445" y="460"/>
      <point x="427" y="517"/>
      <point x="391" y="559"/>
      <point x="337" y="584"/>
      <point x="305" y="584" type="qcurve"/>
      <point x="271" y="584"/>
      <point x="207" y="556"/>
      <point x="158" y="510"/>
      <point x="128" y="447"/>
      <point x="128" y="413" type="qcurve"/>
      <point x="128" y="384"/>
      <point x="149" y="333"/>
      <point x="187" y="295"/>
      <point x="237" y="273"/>
      <point x="267" y="273" type="qcurve"/>
      <point x="299" y="273"/>
      <point x="359" y="297"/>
      <point x="406" y="339"/>
      <point x="437" y="396"/>
    </contour>
  </outline>
</glyph>
<glyph name="less" format="1">
  <advance width="559"/>
  <unicode hex="003C"/>
  <outline>
    <contour>
      <point x="450" y="64" type="qcurve"/>
      <point x="440" y="-15" type="line"/>
      <point x="31" y="240" type="line"/>
      <point x="503" y="494" type="line"/>
      <point x="493" y="416" type="line"/>
      <point x="166" y="240" type="line"/>
      <point x="237" y="195"/>
      <point x="379" y="108"/>
    </contour>
  </outline>
</glyph>
<glyph name="equal" format="1">
  <advance width="649"/>
  <unicode hex="003D"/>
  <outline>
    <contour>
      <point x="568" y="184" type="line"/>
      <point x="561" y="127" type="line"/>
      <point x="51" y="127" type="line"/>
      <point x="58" y="184" type="line"/>
    </contour>
    <contour>
      <point x="592" y="380" type="line"/>
      <point x="585" y="322" type="line"/>
      <point x="75" y="322" type="line"/>
      <point x="82" y="380" type="line"/>
    </contour>
  </outline>
</glyph>
<glyph name="C" format="1">
  <advance width="653"/>
  <unicode hex="0043"/>
  <outline>
    <contour>
      <point x="577" y="562" type="line"/>
      <point x="585" y="635" type="line"/>
      <point x="558" y="646"/>
      <point x="495" y="658"/>
      <point x="466" y="658" type="qcurve"/>
      <point x="398" y="658"/>
      <point x="274" y="604"/>
      <point x="180" y="513"/>
      <point x="125" y="393"/>
      <point x="125" y="326" type="qcurve"/>
      <point x="125" y="273"/>
      <point x="161" y="177"/>
      <point x="229" y="105"/>
      <point x="326" y="62"/>
      <point x="387" y="62" type="qcurve"/>
      <point x="415" y="62"/>
      <point x="470" y="72"/>
      <point x="517" y="86"/>
      <point x="555" y="103"/>
      <point x="566" y="110" type="qcurve"/>
      <point x="589" y="48" type="line"/>
      <point x="555" y="28"/>
      <point x="444" y="-8"/>
      <point x="375" y="-8" type="qcurve"/>
      <point x="299" y="-8"/>
      <point x="181" y="43"/>
      <point x="99" y="130"/>
      <point x="56" y="246"/>
      <point x="56" y="312" type="qcurve"/>
      <point x="56" y="399"/>
      <point x="125" y="549"/>
      <point x="240" y="659"/>
      <point x="389" y="722"/>
      <point x="469" y="722" type="qcurve"/>
      <point x="528" y="722"/>
      <point x="627" y="692"/>
      <point x="655" y="672" type="qcurve"/>
      <point x="641" y="562" type="line"/>
    </contour>
  </outline>
</glyph>
<glyph name="D" format="1">
  <advance width="745"/>
  <unicode hex="0044"/>
  <outline>
    <contour>
      <point x="353" y="714" type="line"/>
      <point x="450" y="714"/>
      <point x="585" y="657"/>
      <point x="669" y="566"/>
      <point x="706" y="451"/>
      <point x="706" y="393" type="qcurve"/>
      <point x="706" y="303"/>
      <point x="638" y="158"/>
      <point x="526" y="56"/>
      <point x="379" y="0"/>
      <point x="300" y="0" type="qcurve"/>
      <point x="22" y="0" type="line"/>
      <point x="30" y="60" type="line"/>
      <point x="107" y="60" type="line"/>
      <point x="179" y="654" type="line"/>
      <point x="102" y="654" type="line"/>
      <point x="110" y="714" type="line"/>
    </contour>
    <contour>
      <point x="302" y="65" type="line"/>
      <point x="369" y="65"/>
      <point x="491" y="110"/>
      <point x="584" y="194"/>
      <point x="638" y="315"/>
      <point x="638" y="390" type="qcurve"/>
      <point x="638" y="445"/>
      <point x="601" y="540"/>
      <point x="530" y="609"/>
      <point x="429" y="648"/>
      <point x="366" y="648" type="qcurve"/>
      <point x="248" y="648" type="line"/>
      <point x="176" y="65" type="line"/>
    </contour>
  </outline>
</glyph>
<glyph name="K" format="1">
  <advance width="688"/>
  <unicode hex="004B"/>
  <outline>
    <contour>
      <point x="257" y="60" type="line"/>
      <point x="249" y="0" type="line"/>
      <point x="21" y="0" type="line"/>
      <point x="29" y="60" type="line"/>
      <point x="107" y="60" type="line"/>
      <point x="179" y="654" type="line"/>
      <point x="101" y="654" type="line"/>
      <point x="109" y="714" type="line"/>
      <point x="337" y="714" type="line"/>
      <point x="329" y="654" type="line"/>
      <point x="254" y="654" type="line"/>
      <point x="224" y="406" type="line"/>
      <point x="223" y="398"/>
      <point x="220" y="382"/>
      <point x="218" y="373" type="qcurve"/>
      <point x="223" y="380"/>
      <point x="237" y="393"/>
      <point x="240" y="397" type="qcurve"/>
      <point x="264" y="417"/>
      <point x="330" y="479"/>
      <point x="405" y="550"/>
      <point x="481" y="623"/>
      <point x="515" y="654" type="qcurve"/>
      <point x="479" y="654" type="line"/>
      <point x="487" y="714" type="line"/>
      <point x="704" y="714" type="line"/>
      <point x="696" y="654" type="line"/>
      <point x="601" y="654" type="line"/>
      <point x="569" y="624"/>
      <point x="495" y="551"/>
      <point x="425" y="482"/>
      <point x="364" y="425"/>
      <point x="346" y="409" type="qcurve"/>
      <point x="577" y="60" type="line"/>
      <point x="666" y="60" type="line"/>
      <point x="659" y="0" type="line"/>
      <point x="427" y="0" type="line"/>
      <point x="435" y="60" type="line"/>
      <point x="491" y="60" type="line"/>
      <point x="292" y="362" type="line"/>
      <point x="274" y="348"/>
      <point x="227" y="308"/>
      <point x="210" y="293" type="qcurve"/>
      <point x="207" y="274"/>
      <point x="201" y="221"/>
      <point x="193" y="160"/>
      <point x="185" y="93"/>
      <point x="181" y="60" type="qcurve"/>
    </contour>
  </outline>
</glyph>
<glyph name="Y" format="1">
  <advance width="714"/>
  <unicode hex="0059"/>
  <outline>
    <contour>
      <point x="445" y="60" type="line"/>
      <point x="438" y="0" type="line"/>
      <point x="209" y="0" type="line"/>
      <point x="216" y="60" type="line"/>
      <point x="296" y="60" type="line"/>
      <point x="319" y="249" type="line"/>
      <point x="306" y="276"/>
      <point x="261" y="376"/>
      <point x="210" y="491"/>
      <point x="158" y="609"/>
      <point x="138" y="654" type="qcurve"/>
      <point x="52" y="654" type="line"/>
      <point x="60" y="714" type="line"/>
      <point x="288" y="714" type="line"/>
      <point x="280" y="654" type="line"/>
      <point x="216" y="654" type="line"/>
      <point x="231" y="620"/>
      <point x="266" y="540"/>
      <point x="303" y="456"/>
      <point x="338" y="374"/>
      <point x="353" y="339" type="qcurve"/>
      <point x="361" y="309" type="line"/>
      <point x="366" y="317"/>
      <point x="373" y="332"/>
      <point x="377" y="339" type="qcurve"/>
      <point x="401" y="374"/>
      <point x="456" y="456"/>
      <point x="512" y="540"/>
      <point x="567" y="620"/>
      <point x="590" y="654" type="qcurve"/>
      <point x="526" y="654" type="line"/>
      <point x="533" y="714" type="line"/>
      <point x="760" y="714" type="line"/>
      <point x="752" y="654" type="line"/>
      <point x="668" y="654" type="line"/>
      <point x="388" y="249" type="line"/>
      <point x="365" y="60" type="line"/>
    </contour>
  </outline>
</glyph>
<glyph name="underscore" format="1">
  <advance width="532"/>
  <unicode hex="005F"/>
  <outline>
    <contour>
      <point x="435" y="0" type="line"/>
      <point x="32" y="0" type="line"/>
      <point x="39" y="57" type="line"/>
      <point x="442" y="57" type="line"/>
    </contour>
  </outline>
</glyph>
<glyph name="grave" format="1">
  <advance width="202"/>
  <unicode hex="0060"/>
  <outline>
    <contour>
      <point x="98" y="617" type="line"/>
      <point x="117" y="583"/>
      <point x="153" y="516"/>
      <point x="172" y="483" type="qcurve"/>
      <point x="129" y="483" type="line"/>
      <point x="106" y="516"/>
      <point x="61" y="583"/>
      <point x="38" y="617" type="qcurve"/>
    </contour>
  </outline>
</glyph>
<glyph name="m" format="1">
  <advance width="825"/>
  <unicode hex="006D"/>
  <outline>
    <contour>
      <point x="712" y="74" type="line"/>
      <point x="709" y="48" type="line"/>
      <point x="777" y="48" type="line"/>
      <point x="771" y="0" type="line"/>
      <point x="577" y="0" type="line"/>
      <point x="583" y="48" type="line"/>
      <point x="654" y="48" type="line"/>
      <point x="657" y="72" type="line"/>
      <point x="681" y="270" type="line"/>
      <point x="684" y="304"/>
      <point x="646" y="352"/>
      <point x="602" y="354" type="qcurve"/>
      <point x="571" y="354"/>
      <point x="515" y="333"/>
      <point x="472" y="296"/>
      <point x="443" y="245"/>
      <point x="438" y="215" type="qcurve"/>
      <point x="421" y="74" type="line"/>
      <point x="418" y="48" type="line"/>
      <point x="486" y="48" type="line"/>
      <point x="480" y="0" type="line"/>
      <point x="286" y="0" type="line"/>
      <point x="292" y="48" type="line"/>
      <point x="363" y="48" type="line"/>
      <point x="366" y="72" type="line"/>
      <point x="390" y="270" type="line"/>
      <point x="393" y="304"/>
      <point x="354" y="352"/>
      <point x="311" y="354" type="qcurve"/>
      <point x="279" y="354"/>
      <point x="223" y="333"/>
      <point x="180" y="295"/>
      <point x="151" y="243"/>
      <point x="147" y="212" type="qcurve"/>
      <point x="129" y="67" type="line"/>
      <point x="130" y="67" type="line"/>
      <point x="127" y="48" type="line"/>
      <point x="200" y="48" type="line"/>
      <point x="194" y="0" type="line"/>
      <point x="-2" y="0" type="line"/>
      <point x="4" y="48" type="line"/>
      <point x="72" y="48" type="line"/>
      <point x="110" y="351" type="line"/>
      <point x="41" y="351" type="line"/>
      <point x="48" y="400" type="line"/>
      <point x="163" y="400" type="line"/>
      <point x="155" y="297" type="line"/>
      <point x="183" y="347"/>
      <point x="271" y="408"/>
      <point x="331" y="409" type="qcurve"/>
      <point x="387" y="409"/>
      <point x="448" y="350"/>
      <point x="448" y="302" type="qcurve"/>
      <point x="477" y="350"/>
      <point x="563" y="409"/>
      <point x="622" y="409" type="qcurve"/>
      <point x="682" y="409"/>
      <point x="744" y="343"/>
      <point x="739" y="289" type="qcurve"/>
    </contour>
  </outline>
</glyph>
<glyph name="q" format="1">
  <advance width="550"/>
  <unicode hex="0071"/>
  <outline>
    <contour>
      <point x="28" y="176" type="qcurve"/>
      <point x="28" y="226"/>
      <point x="66" y="311"/>
      <point x="130" y="374"/>
      <point x="214" y="409"/>
      <point x="261" y="409" type="qcurve"/>
      <point x="292" y="409"/>
      <point x="342" y="393"/>
      <point x="380" y="367"/>
      <point x="405" y="333"/>
      <point x="411" y="316" type="qcurve"/>
      <point x="412" y="326"/>
      <point x="416" y="352"/>
      <point x="420" y="377"/>
      <point x="423" y="397"/>
      <point x="423" y="400" type="qcurve"/>
      <point x="544" y="400" type="line"/>
      <point x="538" y="351" type="line"/>
      <point x="470" y="351" type="line"/>
      <point x="409" y="-144" type="line"/>
      <point x="477" y="-144" type="line"/>
      <point x="471" y="-192" type="line"/>
      <point x="349" y="-192" type="line"/>
      <point x="357" y="-125" type="line"/>
      <point x="378" y="41" type="line"/>
      <point x="379" y="52"/>
      <point x="382" y="73"/>
      <point x="384" y="83" type="qcurve"/>
      <point x="359" y="46"/>
      <point x="269" y="-8"/>
      <point x="209" y="-8" type="qcurve"/>
      <point x="167" y="-8"/>
      <point x="100" y="21"/>
      <point x="53" y="70"/>
      <point x="28" y="137"/>
    </contour>
    <contour>
      <point x="84" y="184" type="qcurve"/>
      <point x="84" y="155"/>
      <point x="104" y="104"/>
      <point x="140" y="67"/>
      <point x="191" y="46"/>
      <point x="221" y="46" type="qcurve"/>
      <point x="257" y="46"/>
      <point x="321" y="73"/>
      <point x="369" y="119"/>
      <point x="397" y="182"/>
      <point x="397" y="217" type="qcurve"/>
      <point x="397" y="246"/>
      <point x="377" y="297"/>
      <point x="341" y="334"/>
      <point x="290" y="355"/>
      <point x="259" y="355" type="qcurve"/>
      <point x="223" y="355"/>
      <point x="159" y="328"/>
      <point x="112" y="282"/>
      <point x="84" y="220"/>
    </contour>
  </outline>
</glyph>
<glyph name="currency" format="1">
  <advance width="456"/>
  <unicode hex="00A4"/>
  <outline>
    <contour>
      <point x="93" y="346" type="qcurve"/>
      <point x="93" y="375"/>
      <point x="114" y="423"/>
      <point x="132" y="444" type="qcurve"/>
      <point x="125" y="452"/>
      <point x="112" y="469"/>
      <point x="104" y="477" type="qcurve"/>
      <point x="137" y="506" type="line"/>
      <point x="165" y="474" type="line"/>
      <point x="185" y="488"/>
      <point x="231" y="504"/>
      <point x="255" y="504" type="qcurve"/>
      <point x="280" y="504"/>
      <point x="321" y="487"/>
      <point x="337" y="473" type="qcurve"/>
      <point x="374" y="506" type="line"/>
      <point x="400" y="476" type="line"/>
      <point x="364" y="445" type="line"/>
      <point x="373" y="431"/>
      <point x="382" y="394"/>
      <point x="382" y="375" type="qcurve"/>
      <point x="382" y="319"/>
      <point x="341" y="275" type="qcurve"/>
      <point x="371" y="240" type="line"/>
      <point x="338" y="211" type="line"/>
      <point x="330" y="219"/>
      <point x="315" y="237"/>
      <point x="307" y="245" type="qcurve"/>
      <point x="288" y="232"/>
      <point x="243" y="218"/>
      <point x="220" y="218" type="qcurve"/>
      <point x="172" y="218"/>
      <point x="140" y="244" type="qcurve"/>
      <point x="101" y="210" type="line"/>
      <point x="75" y="239" type="line"/>
      <point x="113" y="274" type="line"/>
      <point x="93" y="303"/>
    </contour>
    <contour>
      <point x="135" y="350" type="qcurve"/>
      <point x="135" y="312"/>
      <point x="187" y="258"/>
      <point x="225" y="258" type="qcurve"/>
      <point x="248" y="258"/>
      <point x="290" y="276"/>
      <point x="321" y="307"/>
      <point x="340" y="348"/>
      <point x="340" y="371" type="qcurve"/>
      <point x="340" y="410"/>
      <point x="289" y="463"/>
      <point x="250" y="463" type="qcurve"/>
      <point x="227" y="463"/>
      <point x="186" y="445"/>
      <point x="154" y="414"/>
      <point x="135" y="373"/>
    </contour>
  </outline>
</glyph>
<glyph name="copyright" format="1">
  <advance width="646"/>
  <unicode hex="00A9"/>
  <outline>
    <contour>
      <point x="304" y="115" type="qcurve"/>
      <point x="254" y="115"/>
      <point x="170" y="149"/>
      <point x="109" y="211"/>
      <point x="75" y="294"/>
      <point x="75" y="344" type="qcurve"/>
      <point x="75" y="405"/>
      <point x="122" y="510"/>
      <point x="202" y="586"/>
      <point x="308" y="630"/>
      <point x="366" y="630" type="qcurve"/>
      <point x="416" y="630"/>
      <point x="500" y="596"/>
      <point x="561" y="534"/>
      <point x="595" y="450"/>
      <point x="595" y="400" type="qcurve"/>
      <point x="595" y="340"/>
      <point x="548" y="235"/>
      <point x="468" y="159"/>
      <point x="362" y="115"/>
    </contour>
    <contour>
      <point x="306" y="138" type="qcurve"/>
      <point x="358" y="138"/>
      <point x="454" y="178"/>
      <point x="528" y="248"/>
      <point x="571" y="342"/>
      <point x="571" y="397" type="qcurve"/>
      <point x="571" y="443"/>
      <point x="540" y="520"/>
      <point x="485" y="576"/>
      <point x="409" y="607"/>
      <point x="364" y="607" type="qcurve"/>
      <point x="311" y="607"/>
      <point x="216" y="567"/>
      <point x="142" y="497"/>
      <point x="99" y="401"/>
      <point x="99" y="346" type="qcurve"/>
      <point x="99" y="301"/>
      <point x="130" y="225"/>
      <point x="186" y="170"/>
      <point x="261" y="138"/>
    </contour>
    <contour>
      <point x="411" y="467" type="line"/>
      <point x="415" y="500" type="line"/>
      <point x="390" y="511"/>
      <point x="361" y="511" type="qcurve"/>
      <point x="330" y="511"/>
      <point x="274" y="487"/>
      <point x="232" y="445"/>
      <point x="207" y="391"/>
      <point x="207" y="361" type="qcurve"/>
      <point x="207" y="337"/>
      <point x="223" y="293"/>
      <point x="254" y="260"/>
      <point x="298" y="241"/>
      <point x="325" y="241" type="qcurve"/>
      <point x="351" y="241"/>
      <point x="396" y="256"/>
      <point x="406" y="263" type="qcurve"/>
      <point x="417" y="235" type="line"/>
      <point x="401" y="226"/>
      <point x="351" y="209"/>
      <point x="320" y="209" type="qcurve"/>
      <point x="286" y="209"/>
      <point x="232" y="232"/>
      <point x="195" y="272"/>
      <point x="176" y="324"/>
      <point x="176" y="354" type="qcurve"/>
      <point x="176" y="393"/>
      <point x="207" y="461"/>
      <point x="259" y="511"/>
      <point x="327" y="540"/>
      <point x="363" y="540" type="qcurve"/>
      <point x="389" y="540"/>
      <point x="434" y="526"/>
      <point x="447" y="517" type="qcurve"/>
      <point x="440" y="467" type="line"/>
    </contour>
  </outline>
</glyph>
<glyph name="ordfeminine" format="1">
  <advance width="456"/>
  <unicode hex="00AA"/>
  <outline>
    <contour>
      <point x="68" y="434" type="qcurve"/>
      <point x="68" y="468"/>
      <point x="96" y="528"/>
      <point x="143" y="574"/>
      <point x="204" y="601"/>
      <point x="237" y="601" type="qcurve"/>
      <point x="281" y="601"/>
      <point x="337" y="558"/>
      <point x="344" y="535" type="qcurve"/>
      <point x="346" y="549"/>
      <point x="351" y="579"/>
      <point x="354" y="594" type="qcurve"/>
      <point x="391" y="594" type="line"/>
      <point x="360" y="341" type="line"/>
      <point x="409" y="341" type="line"/>
      <point x="405" y="306" type="line"/>
      <point x="316" y="306" type="line"/>
      <point x="319" y="336" type="line"/>
      <point x="321" y="344"/>
      <point x="322" y="358"/>
      <point x="323" y="364" type="qcurve"/>
      <point x="310" y="341"/>
      <point x="246" y="300"/>
      <point x="201" y="300" type="qcurve"/>
      <point x="171" y="300"/>
      <point x="122" y="321"/>
      <point x="87" y="357"/>
      <point x="68" y="406"/>
    </contour>
    <contour>
      <point x="107" y="439" type="qcurve"/>
      <point x="107" y="396"/>
      <point x="163" y="339"/>
      <point x="207" y="339" type="qcurve"/>
      <point x="233" y="339"/>
      <point x="279" y="359"/>
      <point x="314" y="392"/>
      <point x="334" y="437"/>
      <point x="334" y="463" type="qcurve"/>
      <point x="334" y="505"/>
      <point x="279" y="562"/>
      <point x="234" y="562" type="qcurve"/>
      <point x="208" y="562"/>
      <point x="162" y="543"/>
      <point x="127" y="509"/>
      <point x="107" y="464"/>
    </contour>
  </outline>
</glyph>
<glyph name="guillemotleft" format="1">
  <advance width="454"/>
  <unicode hex="00AB"/>
  <outline>
    <contour>
      <point x="364" y="62" type="line"/>
      <point x="213" y="241" type="line"/>
      <point x="228" y="253"/>
      <point x="282" y="303"/>
      <point x="340" y="357"/>
      <point x="394" y="407"/>
      <point x="408" y="419" type="qcurve"/>
      <point x="400" y="353" type="line"/>
      <point x="388" y="342"/>
      <point x="358" y="313"/>
      <point x="326" y="281"/>
      <point x="296" y="252"/>
      <point x="284" y="241" type="qcurve"/>
      <point x="293" y="230"/>
      <point x="316" y="201"/>
      <point x="340" y="169"/>
      <point x="363" y="139"/>
      <point x="372" y="128" type="qcurve"/>
    </contour>
    <contour>
      <point x="191" y="62" type="line"/>
      <point x="41" y="241" type="line"/>
      <point x="56" y="253"/>
      <point x="109" y="303"/>
      <point x="168" y="357"/>
      <point x="221" y="407"/>
      <point x="235" y="419" type="qcurve"/>
      <point x="227" y="352" type="line"/>
      <point x="215" y="341"/>
      <point x="186" y="312"/>
      <point x="154" y="281"/>
      <point x="124" y="252"/>
      <point x="112" y="241" type="qcurve"/>
      <point x="121" y="230"/>
      <point x="144" y="201"/>
      <point x="167" y="169"/>
      <point x="190" y="139"/>
      <point x="199" y="128" type="qcurve"/>
    </contour>
  </outline>
</glyph>
<glyph name="macron" format="1">
  <advance width="403"/>
  <unicode hex="00AF"/>
  <outline>
    <contour>
      <point x="145" y="487" type="line"/>
      <point x="150" y="526" type="line"/>
      <point x="382" y="526" type="line"/>
      <point x="377" y="487" type="line"/>
    </contour>
  </outline>
</glyph>
<glyph name="mu" format="1">
  <advance width="563"/>
  <unicode hex="00B5"/>
  <outline>
    <contour>
      <point x="407" y="333" type="line"/>
      <point x="409" y="351" type="line"/>
      <point x="336" y="351" type="line"/>
      <point x="342" y="400" type="line"/>
      <point x="470" y="400" type="line"/>
      <point x="427" y="48" type="line"/>
      <point x="494" y="48" type="line"/>
      <point x="489" y="0" type="line"/>
      <point x="376" y="0" type="line"/>
      <point x="382" y="103" type="line"/>
      <point x="354" y="53"/>
      <point x="261" y="-9"/>
      <point x="200" y="-9" type="qcurve"/>
      <point x="155" y="-9"/>
      <point x="126" y="11" type="qcurve"/>
      <point x="100" y="-201" type="line"/>
      <point x="46" y="-201" type="line"/>
      <point x="89" y="142" type="line"/>
      <point x="90" y="152" type="line"/>
      <point x="142" y="140" type="line"/>
      <point x="126" y="11" type="line"/>
      <point x="103" y="26"/>
      <point x="81" y="78"/>
      <point x="85" y="111" type="qcurve"/>
      <point x="89" y="142" type="line"/>
      <point x="90" y="152" type="line"/>
      <point x="114" y="351" type="line"/>
      <point x="46" y="351" type="line"/>
      <point x="52" y="400" type="line"/>
      <point x="175" y="400" type="line"/>
      <point x="166" y="328" type="line"/>
      <point x="142" y="130" type="line"/>
      <point x="140" y="96"/>
      <point x="178" y="48"/>
      <point x="221" y="46" type="qcurve"/>
      <point x="252" y="46"/>
      <point x="310" y="67"/>
      <point x="355" y="104"/>
      <point x="385" y="156"/>
      <point x="389" y="187" type="qcurve"/>
    </contour>
  </outline>
</glyph>
<glyph name="periodcentered" format="1">
  <advance width="210"/>
  <unicode hex="00B7"/>
  <outline>
    <contour>
      <point x="64" y="279" type="qcurve"/>
      <point x="64" y="299"/>
      <point x="94" y="325"/>
      <point x="111" y="325" type="qcurve"/>
      <point x="125" y="325"/>
      <point x="146" y="304"/>
      <point x="146" y="288" type="qcurve"/>
      <point x="146" y="268"/>
      <point x="117" y="243"/>
      <point x="100" y="243" type="qcurve"/>
      <point x="86" y="243"/>
      <point x="64" y="263"/>
    </contour>
  </outline>
</glyph>
<glyph name="cedilla" format="1">
  <advance width="456"/>
  <unicode hex="00B8"/>
  <outline>
    <contour>
      <point x="189" y="0" type="line"/>
      <point x="227" y="0" type="line"/>
      <point x="226" y="-7" type="line"/>
      <point x="224" y="-21"/>
      <point x="230" y="-38"/>
      <point x="241" y="-49"/>
      <point x="255" y="-57"/>
      <point x="261" y="-61" type="qcurve"/>
      <point x="278" y="-75"/>
      <point x="292" y="-109"/>
      <point x="292" y="-126" type="qcurve"/>
      <point x="292" y="-176"/>
      <point x="230" y="-242"/>
      <point x="180" y="-242" type="qcurve"/>
      <point x="149" y="-242"/>
      <point x="101" y="-208"/>
      <point x="93" y="-173" type="qcurve"/>
      <point x="109" y="-165"/>
      <point x="129" y="-156" type="qcurve"/>
      <point x="133" y="-174"/>
      <point x="160" y="-197"/>
      <point x="181" y="-197" type="qcurve"/>
      <point x="211" y="-197"/>
      <point x="248" y="-157"/>
      <point x="248" y="-128" type="qcurve"/>
      <point x="248" y="-107"/>
      <point x="227" y="-84"/>
      <point x="202" y="-65"/>
      <point x="183" y="-45"/>
      <point x="185" y="-28" type="qcurve"/>
    </contour>
  </outline>
</glyph>
<glyph name="onequarter" format="1">
  <advance width="793"/>
  <unicode hex="00BC"/>
  <outline>
    <contour>
      <point x="718" y="42" type="line"/>
      <point x="714" y="0" type="line"/>
      <point x="544" y="0" type="line"/>
      <point x="549" y="42" type="line"/>
      <point x="610" y="42" type="line"/>
      <point x="621" y="130" type="line"/>
      <point x="381" y="130" type="line"/>
      <point x="461" y="220"/>
      <point x="629" y="404"/>
      <point x="709" y="494" type="qcurve"/>
      <point x="670" y="173" type="line"/>
      <point x="742" y="173" type="line"/>
      <point x="737" y="130" type="line"/>
      <point x="664" y="130" type="line"/>
      <point x="654" y="42" type="line"/>
    </contour>
    <contour>
      <point x="150" y="-19" type="line"/>
      <point x="524" y="741" type="line"/>
      <point x="583" y="741" type="line"/>
      <point x="209" y="-19" type="line"/>
    </contour>
    <contour>
      <point x="86" y="658" type="line"/>
      <point x="91" y="699" type="line"/>
      <point x="193" y="699" type="line"/>
      <point x="136" y="234" type="line"/>
      <point x="93" y="234" type="line"/>
      <point x="146" y="658" type="line"/>
    </contour>
    <contour>
      <point x="651" y="375" type="line"/>
      <point x="472" y="173" type="line"/>
      <point x="626" y="173" type="line"/>
    </contour>
  </outline>
</glyph>
<glyph name="questiondown" format="1">
  <advance width="476"/>
  <unicode hex="00BF"/>
  <outline>
    <contour>
      <point x="352" y="-34" type="qcurve"/>
      <point x="400" y="-52" type="line"/>
      <point x="389" y="-76"/>
      <point x="353" y="-128"/>
      <point x="300" y="-171"/>
      <point x="231" y="-199"/>
      <point x="186" y="-199" type="qcurve"/>
      <point x="148" y="-199"/>
      <point x="84" y="-171"/>
      <point x="38" y="-123"/>
      <point x="12" y="-59"/>
      <point x="12" y="-22" type="qcurve"/>
      <point x="12" y="41"/>
      <point x="76" y="132"/>
      <point x="133" y="170" type="qcurve"/>
      <point x="151" y="182"/>
      <point x="186" y="202"/>
      <point x="216" y="228"/>
      <point x="237" y="266"/>
      <point x="241" y="295" type="qcurve"/>
      <point x="251" y="374" type="line"/>
      <point x="309" y="374" type="line"/>
      <point x="297" y="276" type="line"/>
      <point x="293" y="244"/>
      <point x="267" y="204"/>
      <point x="229" y="174"/>
      <point x="181" y="146"/>
      <point x="155" y="127" type="qcurve"/>
      <point x="112" y="95"/>
      <point x="72" y="24"/>
      <point x="72" y="-18" type="qcurve"/>
      <point x="72" y="-45"/>
      <point x="90" y="-90"/>
      <point x="121" y="-123"/>
      <point x="166" y="-142"/>
      <point x="193" y="-142" type="qcurve"/>
      <point x="251" y="-142"/>
      <point x="329" y="-85"/>
    </contour>
    <contour>
      <point x="300" y="530" type="qcurve"/>
      <point x="314" y="530"/>
      <point x="336" y="510"/>
      <point x="336" y="493" type="qcurve"/>
      <point x="336" y="473"/>
      <point x="307" y="448"/>
      <point x="290" y="448" type="qcurve"/>
      <point x="276" y="448"/>
      <point x="255" y="469"/>
      <point x="255" y="485" type="qcurve"/>
      <point x="255" y="505"/>
      <point x="284" y="530"/>
    </contour>
  </outline>
</glyph>
<glyph name="Acircumflex" format="1">
  <advance width="735"/>
  <unicode hex="00C2"/>
  <outline>
    <contour>
      <point x="-23" y="60" type="line"/>
      <point x="-31" y="0" type="line"/>
      <point x="197" y="0" type="line"/>
      <point x="205" y="60" type="line"/>
      <point x="124" y="60" type="line"/>
      <point x="227" y="255" type="line"/>
      <point x="501" y="255" type="line"/>
      <point x="556" y="60" type="line"/>
      <point x="478" y="60" type="line"/>
      <point x="471" y="0" type="line"/>
      <point x="699" y="0" type="line"/>
      <point x="707" y="60" type="line"/>
      <point x="624" y="60" type="line"/>
      <point x="425" y="747" type="line"/>
      <point x="57" y="60" type="line"/>
    </contour>
    <contour>
      <point x="394" y="572" type="line"/>
      <point x="396" y="578"/>
      <point x="399" y="583" type="qcurve"/>
      <point x="401" y="588"/>
      <point x="405" y="598"/>
      <point x="407" y="603" type="qcurve"/>
      <point x="408" y="598"/>
      <point x="410" y="588"/>
      <point x="411" y="583" type="qcurve"/>
      <point x="412" y="578"/>
      <point x="413" y="572" type="qcurve"/>
      <point x="485" y="314" type="line"/>
      <point x="258" y="314" type="line"/>
    </contour>
    <contour>
      <point x="443" y="889" type="qcurve"/>
      <point x="468" y="858"/>
      <point x="489" y="831" type="qcurve"/>
      <point x="507" y="808"/>
      <point x="541" y="763"/>
      <point x="547" y="755" type="qcurve"/>
      <point x="504" y="755" type="line"/>
      <point x="435" y="825" type="line"/>
      <point x="349" y="755" type="line"/>
      <point x="305" y="755" type="line"/>
      <point x="313" y="763"/>
      <point x="358" y="807"/>
      <point x="382" y="830" type="qcurve"/>
      <point x="410" y="857"/>
    </contour>
  </outline>
</glyph>
<glyph name="AE" format="1">
  <advance width="721"/>
  <unicode hex="00C6"/>
  <outline>
    <contour>
      <point x="631" y="580" type="line"/>
      <point x="639" y="652" type="line"/>
      <point x="470" y="652" type="line"/>
      <point x="438" y="391" type="line"/>
      <point x="633" y="391" type="line"/>
      <point x="625" y="327" type="line"/>
      <point x="430" y="327" type="line"/>
      <point x="398" y="64" type="line"/>
      <point x="582" y="64" type="line"/>
      <point x="591" y="140" type="line"/>
      <point x="656" y="140" type="line"/>
      <point x="642" y="33" type="line"/>
      <point x="638" y="0" type="line"/>
      <point x="322" y="0" type="line"/>
      <point x="353" y="255" type="line"/>
      <point x="225" y="255" type="line"/>
      <point x="122" y="60" type="line"/>
      <point x="203" y="60" type="line"/>
      <point x="195" y="0" type="line"/>
      <point x="-29" y="0" type="line"/>
      <point x="-21" y="60" type="line"/>
      <point x="59" y="60" type="line"/>
      <point x="409" y="714" type="line"/>
      <point x="712" y="714" type="line"/>
      <point x="707" y="679" type="line"/>
      <point x="708" y="679" type="line"/>
      <point x="695" y="580" type="line"/>
    </contour>
    <contour>
      <point x="360" y="314" type="line"/>
      <point x="391" y="571" type="line"/>
      <point x="256" y="314" type="line"/>
    </contour>
  </outline>
</glyph>
<glyph name="Eacute" format="1">
  <advance width="647"/>
  <unicode hex="00C9"/>
  <outline>
    <contour>
      <point x="556" y="580" type="line"/>
      <point x="564" y="652" type="line"/>
      <point x="248" y="652" type="line"/>
      <point x="216" y="391" type="line"/>
      <point x="558" y="391" type="line"/>
      <point x="550" y="327" type="line"/>
      <point x="208" y="327" type="line"/>
      <point x="176" y="64" type="line"/>
      <point x="507" y="64" type="line"/>
      <point x="516" y="140" type="line"/>
      <point x="581" y="140" type="line"/>
      <point x="571" y="64" type="line"/>
      <point x="567" y="33" type="line"/>
      <point x="563" y="0" type="line"/>
      <point x="22" y="0" type="line"/>
      <point x="30" y="60" type="line"/>
      <point x="107" y="60" type="line"/>
      <point x="179" y="654" type="line"/>
      <point x="102" y="654" type="line"/>
      <point x="110" y="714" type="line"/>
      <point x="637" y="714" type="line"/>
      <point x="632" y="679" type="line"/>
      <point x="633" y="679" type="line"/>
      <point x="620" y="580" type="line"/>
    </contour>
    <contour>
      <point x="352" y="757" type="line"/>
      <point x="379" y="790"/>
      <point x="433" y="857"/>
      <point x="459" y="891" type="qcurve"/>
      <point x="519" y="891" type="line"/>
      <point x="396" y="757" type="line"/>
    </contour>
  </outline>
</glyph>
<glyph name="Iacute" format="1">
  <advance width="336"/>
  <unicode hex="00CD"/>
  <outline>
    <contour>
      <point x="337" y="714" type="line"/>
      <point x="329" y="654" type="line"/>
      <point x="248" y="654" type="line"/>
      <point x="175" y="60" type="line"/>
      <point x="257" y="60" type="line"/>
      <point x="249" y="0" type="line"/>
      <point x="21" y="0" type="line"/>
      <point x="29" y="60" type="line"/>
      <point x="107" y="60" type="line"/>
      <point x="179" y="654" type="line"/>
      <point x="101" y="654" type="line"/>
      <point x="109" y="714" type="line"/>
    </contour>
    <contour>
      <point x="153" y="757" type="line"/>
      <point x="180" y="790"/>
      <point x="234" y="857"/>
      <point x="260" y="891" type="qcurve"/>
      <point x="320" y="891" type="line"/>
      <point x="197" y="757" type="line"/>
    </contour>
  </outline>
</glyph>
<glyph name="Ntilde" format="1">
  <advance width="864"/>
  <unicode hex="00D1"/>
  <outline>
    <contour>
      <point x="258" y="60" type="line"/>
      <point x="250" y="0" type="line"/>
      <point x="22" y="0" type="line"/>
      <point x="30" y="60" type="line"/>
      <point x="107" y="60" type="line"/>
      <point x="180" y="654" type="line"/>
      <point x="100" y="654" type="line"/>
      <point x="108" y="714" type="line"/>
      <point x="218" y="714" type="line"/>
      <point x="242" y="678"/>
      <point x="312" y="586"/>
      <point x="391" y="485"/>
      <point x="474" y="380"/>
      <point x="552" y="280"/>
      <point x="620" y="190"/>
      <point x="643" y="155" type="qcurve"/>
      <point x="659" y="128" type="line"/>
      <point x="659" y="136"/>
      <point x="660" y="153"/>
      <point x="660" y="161" type="qcurve"/>
      <point x="720" y="655" type="line"/>
      <point x="637" y="655" type="line"/>
      <point x="645" y="715" type="line"/>
      <point x="873" y="715" type="line"/>
      <point x="865" y="655" type="line"/>
      <point x="788" y="655" type="line"/>
      <point x="704" y="-33" type="line"/>
      <point x="680" y="2"/>
      <point x="606" y="99"/>
      <point x="521" y="209"/>
      <point x="430" y="324"/>
      <point x="346" y="434"/>
      <point x="276" y="529"/>
      <point x="254" y="564" type="qcurve"/>
      <point x="238" y="590" type="line"/>
      <point x="237" y="582"/>
      <point x="237" y="566"/>
      <point x="237" y="558" type="qcurve"/>
      <point x="176" y="60" type="line"/>
    </contour>
    <contour>
      <point x="476" y="793" type="qcurve"/>
      <point x="462" y="810"/>
      <point x="441" y="821"/>
      <point x="427" y="821" type="qcurve"/>
      <point x="419" y="821"/>
      <point x="400" y="817"/>
      <point x="381" y="806"/>
      <point x="365" y="786"/>
      <point x="362" y="771" type="qcurve"/>
      <point x="329" y="773" type="line"/>
      <point x="332" y="793"/>
      <point x="353" y="823"/>
      <point x="381" y="844"/>
      <point x="412" y="854"/>
      <point x="427" y="854" type="qcurve"/>
      <point x="450" y="854"/>
      <point x="483" y="836"/>
      <point x="497" y="819" type="qcurve"/>
      <point x="511" y="802"/>
      <point x="533" y="791"/>
      <point x="547" y="791" type="qcurve"/>
      <point x="554" y="791"/>
      <point x="574" y="795"/>
      <point x="593" y="806"/>
      <point x="608" y="826"/>
      <point x="612" y="841" type="qcurve"/>
      <point x="645" y="839" type="line"/>
      <point x="641" y="819"/>
      <point x="621" y="789"/>
      <point x="593" y="768"/>
      <point x="561" y="758"/>
      <point x="546" y="758" type="qcurve"/>
      <point x="524" y="758"/>
      <point x="490" y="777"/>
    </contour>
  </outline>
</glyph>
<glyph name="Udieresis" format="1">
  <advance width="747"/>
  <unicode hex="00DC"/>
  <outline>
    <contour>
      <point x="322" y="714" type="line"/>
      <point x="314" y="654" type="line"/>
      <point x="234" y="654" type="line"/>
      <point x="185" y="246" type="line"/>
      <point x="179" y="203"/>
      <point x="198" y="133"/>
      <point x="242" y="84"/>
      <point x="307" y="57"/>
      <point x="347" y="57" type="qcurve"/>
      <point x="386" y="57"/>
      <point x="458" y="84"/>
      <point x="514" y="133"/>
      <point x="551" y="203"/>
      <point x="556" y="246" type="qcurve"/>
      <point x="606" y="654" type="line"/>
      <point x="614" y="714" type="line"/>
      <point x="761" y="714" type="line"/>
      <point x="753" y="654" type="line"/>
      <point x="674" y="654" type="line"/>
      <point x="625" y="243" type="line"/>
      <point x="617" y="184"/>
      <point x="566" y="91"/>
      <point x="490" y="27"/>
      <point x="393" y="-8"/>
      <point x="339" y="-8" type="qcurve"/>
      <point x="285" y="-8"/>
      <point x="197" y="27"/>
      <point x="137" y="91"/>
      <point x="109" y="184"/>
      <point x="116" y="243" type="qcurve"/>
      <point x="166" y="654" type="line"/>
      <point x="86" y="654" type="line"/>
      <point x="94" y="714" type="line"/>
    </contour>
    <contour>
      <point x="312" y="794" type="qcurve"/>
      <point x="312" y="813"/>
      <point x="341" y="839"/>
      <point x="358" y="839" type="qcurve"/>
      <point x="372" y="839"/>
      <point x="393" y="818"/>
      <point x="393" y="802" type="qcurve"/>
      <point x="393" y="782"/>
      <point x="364" y="757"/>
      <point x="348" y="757" type="qcurve"/>
      <point x="333" y="757"/>
      <point x="312" y="777"/>
    </contour>
    <contour>
      <point x="491" y="794" type="qcurve"/>
      <point x="491" y="813"/>
      <point x="520" y="839"/>
      <point x="537" y="839" type="qcurve"/>
      <point x="551" y="839"/>
      <point x="572" y="818"/>
      <point x="572" y="802" type="qcurve"/>
      <point x="572" y="782"/>
      <point x="543" y="757"/>
      <point x="527" y="757" type="qcurve"/>
      <point x="513" y="757"/>
      <point x="491" y="777"/>
    </contour>
  </outline>
</glyph>
<glyph name="Thorn" format="1">
  <advance width="571"/>
  <unicode hex="00DE"/>
  <outline>
    <contour>
      <point x="176" y="60" type="line"/>
      <point x="168" y="0" type="line"/>
      <point x="22" y="0" type="line"/>
      <point x="30" y="60" type="line"/>
      <point x="107" y="60" type="line"/>
      <point x="179" y="654" type="line"/>
      <point x="102" y="654" type="line"/>
      <point x="110" y="714" type="line"/>
      <point x="256" y="714" type="line"/>
      <point x="255" y="706" type="line"/>
      <point x="238" y="567" type="line"/>
      <point x="343" y="567" type="line"/>
      <point x="384" y="567"/>
      <point x="459" y="545"/>
      <point x="517" y="499"/>
      <point x="552" y="430"/>
      <point x="552" y="383" type="qcurve"/>
      <point x="552" y="340"/>
      <point x="522" y="253"/>
      <point x="459" y="183"/>
      <point x="361" y="139"/>
      <point x="292" y="139" type="qcurve"/>
      <point x="185" y="139" type="line"/>
      <point x="175" y="60" type="line"/>
    </contour>
    <contour>
      <point x="193" y="204" type="line"/>
      <point x="299" y="204" type="line"/>
      <point x="352" y="204"/>
      <point x="423" y="240"/>
      <point x="465" y="292"/>
      <point x="483" y="351"/>
      <point x="483" y="374" type="qcurve"/>
      <point x="483" y="399"/>
      <point x="464" y="446"/>
      <point x="428" y="482"/>
      <point x="373" y="503"/>
      <point x="337" y="503" type="qcurve"/>
      <point x="230" y="503" type="line"/>
    </contour>
  </outline>
</glyph>
<glyph name="atilde" format="1">
  <advance width="552"/>
  <unicode hex="00E3"/>
  <outline>
    <contour>
      <point x="432" y="48" type="line"/>
      <point x="500" y="48" type="line"/>
      <point x="494" y="0" type="line"/>
      <point x="371" y="0" type="line"/>
      <point x="376" y="41" type="line"/>
      <point x="381" y="81" type="line"/>
      <point x="372" y="64"/>
      <point x="340" y="33"/>
      <point x="296" y="7"/>
      <point x="243" y="-8"/>
      <point x="212" y="-8" type="qcurve"/>
      <point x="170" y="-8"/>
      <point x="102" y="21"/>
      <point x="54" y="71"/>
      <point x="27" y="139"/>
      <point x="27" y="177" type="qcurve"/>
      <point x="27" y="224"/>
      <point x="66" y="308"/>
      <point x="131" y="372"/>
      <point x="216" y="409"/>
      <point x="262" y="409" type="qcurve"/>
      <point x="293" y="409"/>
      <point x="343" y="393"/>
      <point x="381" y="366"/>
      <point x="405" y="333"/>
      <point x="410" y="317" type="qcurve"/>
      <point x="413" y="337"/>
      <point x="420" y="379"/>
      <point x="424" y="400" type="qcurve"/>
      <point x="475" y="400" type="line"/>
    </contour>
    <contour>
      <point x="82" y="184" type="qcurve"/>
      <point x="82" y="155"/>
      <point x="102" y="104"/>
      <point x="139" y="67"/>
      <point x="190" y="46"/>
      <point x="220" y="46" type="qcurve"/>
      <point x="256" y="46"/>
      <point x="320" y="73"/>
      <point x="368" y="119"/>
      <point x="396" y="182"/>
      <point x="396" y="217" type="qcurve"/>
      <point x="396" y="246"/>
      <point x="376" y="297"/>
      <point x="339" y="334"/>
      <point x="288" y="355"/>
      <point x="257" y="355" type="qcurve"/>
      <point x="221" y="355"/>
      <point x="158" y="328"/>
      <point x="110" y="282"/>
      <point x="82" y="220"/>
    </contour>
    <contour>
      <point x="291" y="502" type="qcurve"/>
      <point x="277" y="519"/>
      <point x="256" y="530"/>
      <point x="242" y="530" type="qcurve"/>
      <point x="234" y="530"/>
      <point x="215" y="526"/>
      <point x="196" y="515"/>
      <point x="180" y="495"/>
      <point x="177" y="480" type="qcurve"/>
      <point x="144" y="482" type="line"/>
      <point x="147" y="502"/>
      <point x="168" y="532"/>
      <point x="196" y="553"/>
      <point x="227" y="563"/>
      <point x="242" y="563" type="qcurve"/>
      <point x="265" y="563"/>
      <point x="298" y="545"/>
      <point x="312" y="528" type="qcurve"/>
      <point x="326" y="511"/>
      <point x="348" y="500"/>
      <point x="362" y="500" type="qcurve"/>
      <point x="369" y="500"/>
      <point x="389" y="504"/>
      <point x="408" y="515"/>
      <point x="423" y="535"/>
      <point x="427" y="550" type="qcurve"/>
      <point x="460" y="548" type="line"/>
      <point x="456" y="528"/>
      <point x="436" y="498"/>
      <point x="408" y="477"/>
      <point x="376" y="467"/>
      <point x="361" y="467" type="qcurve"/>
      <point x="339" y="467"/>
      <point x="305" y="486"/>
    </contour>
  </outline>
</glyph>
<glyph name="adieresis" format="1">
  <advance width="552"/>
  <unicode hex="00E4"/>
  <outline>
    <contour>
      <point x="432" y="48" type="line"/>
      <point x="500" y="48" type="line"/>
      <point x="494" y="0" type="line"/>
      <point x="371" y="0" type="line"/>
      <point x="376" y="41" type="line"/>
      <point x="381" y="81" type="line"/>
      <point x="372" y="64"/>
      <point x="340" y="33"/>
      <point x="296" y="7"/>
      <point x="243" y="-8"/>
      <point x="212" y="-8" type="qcurve"/>
      <point x="170" y="-8"/>
      <point x="102" y="21"/>
      <point x="54" y="71"/>
      <point x="27" y="139"/>
      <point x="27" y="177" type="qcurve"/>
      <point x="27" y="224"/>
      <point x="66" y="308"/>
      <point x="131" y="372"/>
      <point x="216" y="409"/>
      <point x="262" y="409" type="qcurve"/>
      <point x="293" y="409"/>
      <point x="343" y="393"/>
      <point x="381" y="366"/>
      <point x="405" y="333"/>
      <point x="410" y="317" type="qcurve"/>
      <point x="413" y="337"/>
      <point x="420" y="379"/>
      <point x="424" y="400" type="qcurve"/>
      <point x="475" y="400" type="line"/>
    </contour>
    <contour>
      <point x="82" y="184" type="qcurve"/>
      <point x="82" y="155"/>
      <point x="102" y="104"/>
      <point x="139" y="67"/>
      <point x="190" y="46"/>
      <point x="220" y="46" type="qcurve"/>
      <point x="256" y="46"/>
      <point x="320" y="73"/>
      <point x="368" y="119"/>
      <point x="396" y="182"/>
      <point x="396" y="217" type="qcurve"/>
      <point x="396" y="246"/>
      <point x="376" y="297"/>
      <point x="339" y="334"/>
      <point x="288" y="355"/>
      <point x="257" y="355" type="qcurve"/>
      <point x="221" y="355"/>
      <point x="158" y="328"/>
      <point x="110" y="282"/>
      <point x="82" y="220"/>
    </contour>
    <contour>
      <point x="158" y="513" type="qcurve"/>
      <point x="158" y="532"/>
      <point x="187" y="558"/>
      <point x="204" y="558" type="qcurve"/>
      <point x="218" y="558"/>
      <point x="239" y="537"/>
      <point x="239" y="521" type="qcurve"/>
      <point x="239" y="501"/>
      <point x="210" y="476"/>
      <point x="194" y="476" type="qcurve"/>
      <point x="179" y="476"/>
      <point x="158" y="496"/>
    </contour>
    <contour>
      <point x="337" y="513" type="qcurve"/>
      <point x="337" y="532"/>
      <point x="366" y="558"/>
      <point x="383" y="558" type="qcurve"/>
      <point x="397" y="558"/>
      <point x="418" y="537"/>
      <point x="418" y="521" type="qcurve"/>
      <point x="418" y="501"/>
      <point x="389" y="476"/>
      <point x="373" y="476" type="qcurve"/>
      <point x="359" y="476"/>
      <point x="337" y="496"/>
    </contour>
  </outline>
</glyph>
<glyph name="ecircumflex" format="1">
  <advance width="453"/>
  <unicode hex="00EA"/>
  <outline>
    <contour>
      <point x="370" y="48" type="line"/>
      <point x="338" y="22"/>
      <point x="257" y="-8"/>
      <point x="214" y="-8" type="qcurve"/>
      <point x="172" y="-8"/>
      <point x="104" y="21"/>
      <point x="54" y="71"/>
      <point x="27" y="139"/>
      <point x="27" y="178" type="qcurve"/>
      <point x="27" y="225"/>
      <point x="66" y="310"/>
      <point x="132" y="373"/>
      <point x="217" y="410"/>
      <point x="263" y="410" type="qcurve"/>
      <point x="330" y="410"/>
      <point x="418" y="331"/>
      <point x="432" y="268" type="qcurve"/>
      <point x="396" y="255"/>
      <point x="310" y="222"/>
      <point x="218" y="187"/>
      <point x="128" y="152"/>
      <point x="89" y="137" type="qcurve"/>
      <point x="102" y="96"/>
      <point x="171" y="46"/>
      <point x="219" y="46" type="qcurve"/>
      <point x="250" y="46"/>
      <point x="311" y="68"/>
      <point x="334" y="87" type="qcurve"/>
    </contour>
    <contour>
      <point x="365" y="282" type="qcurve"/>
      <point x="352" y="316"/>
      <point x="295" y="355"/>
      <point x="257" y="355" type="qcurve"/>
      <point x="223" y="355"/>
      <point x="161" y="328"/>
      <point x="113" y="283"/>
      <point x="84" y="222"/>
      <point x="83" y="189" type="qcurve"/>
      <point x="83" y="184"/>
      <point x="83" y="176"/>
      <point x="84" y="174" type="qcurve"/>
      <point x="116" y="187"/>
      <point x="189" y="215"/>
      <point x="263" y="244"/>
      <point x="335" y="271"/>
    </contour>
    <contour>
      <point x="285" y="617" type="qcurve"/>
      <point x="310" y="586"/>
      <point x="331" y="559" type="qcurve"/>
      <point x="349" y="536"/>
      <point x="383" y="491"/>
      <point x="389" y="483" type="qcurve"/>
      <point x="346" y="483" type="line"/>
      <point x="277" y="553" type="line"/>
      <point x="191" y="483" type="line"/>
      <point x="147" y="483" type="line"/>
      <point x="155" y="491"/>
      <point x="200" y="535"/>
      <point x="224" y="558" type="qcurve"/>
      <point x="252" y="585"/>
    </contour>
  </outline>
</glyph>
<glyph name="igrave" format="1">
  <advance width="250"/>
  <unicode hex="00EC"/>
  <outline>
    <contour>
      <point x="131" y="67" type="line"/>
      <point x="128" y="48" type="line"/>
      <point x="201" y="48" type="line"/>
      <point x="195" y="0" type="line"/>
      <point x="-1" y="0" type="line"/>
      <point x="5" y="48" type="line"/>
      <point x="73" y="48" type="line"/>
      <point x="111" y="351" type="line"/>
      <point x="42" y="351" type="line"/>
      <point x="49" y="400" type="line"/>
      <point x="171" y="400" type="line"/>
      <point x="165" y="351" type="line"/>
      <point x="130" y="67" type="line"/>
    </contour>
    <contour>
      <point x="139" y="617" type="line"/>
      <point x="158" y="583"/>
      <point x="194" y="516"/>
      <point x="213" y="483" type="qcurve"/>
      <point x="170" y="483" type="line"/>
      <point x="147" y="516"/>
      <point x="102" y="583"/>
      <point x="79" y="617" type="qcurve"/>
    </contour>
  </outline>
</glyph>
<glyph name="iacute" format="1">
  <advance width="250"/>
  <unicode hex="00ED"/>
  <outline>
    <contour>
      <point x="131" y="67" type="line"/>
      <point x="128" y="48" type="line"/>
      <point x="201" y="48" type="line"/>
      <point x="195" y="0" type="line"/>
      <point x="-1" y="0" type="line"/>
      <point x="5" y="48" type="line"/>
      <point x="73" y="48" type="line"/>
      <point x="111" y="351" type="line"/>
      <point x="42" y="351" type="line"/>
      <point x="49" y="400" type="line"/>
      <point x="171" y="400" type="line"/>
      <point x="165" y="351" type="line"/>
      <point x="130" y="67" type="line"/>
    </contour>
    <contour>
      <point x="97" y="483" type="line"/>
      <point x="124" y="516"/>
      <point x="178" y="583"/>
      <point x="204" y="617" type="qcurve"/>
      <point x="264" y="617" type="line"/>
      <point x="141" y="483" type="line"/>
    </contour>
  </outline>
</glyph>
<glyph name="eth" format="1">
  <advance width="506"/>
  <unicode hex="00F0"/>
  <outline>
    <contour>
      <point x="28" y="200" type="qcurve"/>
      <point x="34" y="244"/>
      <point x="76" y="321"/>
      <point x="139" y="378"/>
      <point x="220" y="410"/>
      <point x="265" y="410" type="qcurve"/>
      <point x="298" y="410"/>
      <point x="356" y="390"/>
      <point x="379" y="373" type="qcurve"/>
      <point x="369" y="424"/>
      <point x="319" y="548"/>
      <point x="273" y="614" type="qcurve"/>
      <point x="198" y="543" type="line"/>
      <point x="170" y="572" type="line"/>
      <point x="190" y="592"/>
      <point x="230" y="630"/>
      <point x="250" y="649" type="qcurve"/>
      <point x="230" y="675"/>
      <point x="188" y="723"/>
      <point x="163" y="744" type="qcurve"/>
      <point x="199" y="775" type="line"/>
      <point x="222" y="755"/>
      <point x="266" y="710"/>
      <point x="287" y="684" type="qcurve"/>
      <point x="359" y="753" type="line"/>
      <point x="386" y="725" type="line"/>
      <point x="310" y="651" type="line"/>
      <point x="340" y="608"/>
      <point x="392" y="508"/>
      <point x="431" y="402"/>
      <point x="453" y="294"/>
      <point x="453" y="243" type="qcurve"/>
      <point x="453" y="233"/>
      <point x="452" y="219"/>
      <point x="451" y="213" type="qcurve"/>
      <point x="449" y="167"/>
      <point x="410" y="86"/>
      <point x="345" y="26"/>
      <point x="260" y="-8"/>
      <point x="212" y="-8" type="qcurve"/>
      <point x="168" y="-8"/>
      <point x="95" y="23"/>
      <point x="46" y="78"/>
      <point x="22" y="154"/>
    </contour>
    <contour>
      <point x="83" y="200" type="qcurve"/>
      <point x="79" y="167"/>
      <point x="96" y="111"/>
      <point x="133" y="70"/>
      <point x="186" y="46"/>
      <point x="219" y="46" type="qcurve"/>
      <point x="254" y="46"/>
      <point x="317" y="73"/>
      <point x="365" y="119"/>
      <point x="394" y="181"/>
      <point x="394" y="216" type="qcurve"/>
      <point x="394" y="246"/>
      <point x="373" y="296"/>
      <point x="337" y="334"/>
      <point x="286" y="355"/>
      <point x="256" y="355" type="qcurve"/>
      <point x="223" y="355"/>
      <point x="164" y="331"/>
      <point x="118" y="289"/>
      <point x="87" y="233"/>
    </contour>
  </outline>
</glyph>
<glyph name="ocircumflex" format="1">
  <advance width="497"/>
  <unicode hex="00F4"/>
  <outline>
    <contour>
      <point x="28" y="200" type="qcurve"/>
      <point x="34" y="244"/>
      <point x="76" y="321"/>
      <point x="139" y="378"/>
      <point x="220" y="410"/>
      <point x="265" y="410" type="qcurve"/>
      <point x="306" y="410"/>
      <point x="375" y="381"/>
      <point x="424" y="331"/>
      <point x="451" y="262"/>
      <point x="451" y="223" type="qcurve"/>
      <point x="451" y="175"/>
      <point x="413" y="91"/>
      <point x="349" y="28"/>
      <point x="261" y="-8"/>
      <point x="212" y="-8" type="qcurve"/>
      <point x="168" y="-8"/>
      <point x="95" y="23"/>
      <point x="46" y="78"/>
      <point x="22" y="154"/>
    </contour>
    <contour>
      <point x="83" y="200" type="qcurve"/>
      <point x="79" y="167"/>
      <point x="96" y="111"/>
      <point x="133" y="70"/>
      <point x="186" y="46"/>
      <point x="219" y="46" type="qcurve"/>
      <point x="254" y="46"/>
      <point x="317" y="73"/>
      <point x="365" y="119"/>
      <point x="394" y="181"/>
      <point x="394" y="216" type="qcurve"/>
      <point x="394" y="246"/>
      <point x="373" y="296"/>
      <point x="337" y="334"/>
      <point x="286" y="355"/>
      <point x="256" y="355" type="qcurve"/>
      <point x="223" y="355"/>
      <point x="164" y="331"/>
      <point x="118" y="289"/>
      <point x="87" y="233"/>
    </contour>
    <contour>
      <point x="293" y="617" type="qcurve"/>
      <point x="318" y="586"/>
      <point x="339" y="559" type="qcurve"/>
      <point x="357" y="536"/>
      <point x="391" y="491"/>
      <point x="397" y="483" type="qcurve"/>
      <point x="354" y="483" type="line"/>
      <point x="285" y="553" type="line"/>
      <point x="199" y="483" type="line"/>
      <point x="155" y="483" type="line"/>
      <point x="163" y="491"/>
      <point x="208" y="535"/>
      <point x="232" y="558" type="qcurve"/>
      <point x="260" y="585"/>
    </contour>
  </outline>
</glyph>
<glyph name="otilde" format="1">
  <advance width="497"/>
  <unicode hex="00F5"/>
  <outline>
    <contour>
      <point x="28" y="200" type="qcurve"/>
      <point x="34" y="244"/>
      <point x="76" y="321"/>
      <point x="139" y="378"/>
      <point x="220" y="410"/>
      <point x="265" y="410" type="qcurve"/>
      <point x="306" y="410"/>
      <point x="375" y="381"/>
      <point x="424" y="331"/>
      <point x="451" y="262"/>
      <point x="451" y="223" type="qcurve"/>
      <point x="451" y="175"/>
      <point x="413" y="91"/>
      <point x="349" y="28"/>
      <point x="261" y="-8"/>
      <point x="212" y="-8" type="qcurve"/>
      <point x="168" y="-8"/>
      <point x="95" y="23"/>
      <point x="46" y="78"/>
      <point x="22" y="154"/>
    </contour>
    <contour>
      <point x="83" y="200" type="qcurve"/>
      <point x="79" y="167"/>
      <point x="96" y="111"/>
      <point x="133" y="70"/>
      <point x="186" y="46"/>
      <point x="219" y="46" type="qcurve"/>
      <point x="254" y="46"/>
      <point x="317" y="73"/>
      <point x="365" y="119"/>
      <point x="394" y="181"/>
      <point x="394" y="216" type="qcurve"/>
      <point x="394" y="246"/>
      <point x="373" y="296"/>
      <point x="337" y="334"/>
      <point x="286" y="355"/>
      <point x="256" y="355" type="qcurve"/>
      <point x="223" y="355"/>
      <point x="164" y="331"/>
      <point x="118" y="289"/>
      <point x="87" y="233"/>
    </contour>
    <contour>
      <point x="269" y="499" type="qcurve"/>
      <point x="255" y="516"/>
      <point x="234" y="527"/>
      <point x="220" y="527" type="qcurve"/>
      <point x="212" y="527"/>
      <point x="193" y="523"/>
      <point x="174" y="512"/>
      <point x="158" y="492"/>
      <point x="155" y="477" type="qcurve"/>
      <point x="122" y="479" type="line"/>
      <point x="125" y="499"/>
      <point x="146" y="529"/>
      <point x="174" y="550"/>
      <point x="205" y="560"/>
      <point x="220" y="560" type="qcurve"/>
      <point x="243" y="560"/>
      <point x="276" y="542"/>
      <point x="290" y="525" type="qcurve"/>
      <point x="304" y="508"/>
      <point x="326" y="497"/>
      <point x="340" y="497" type="qcurve"/>
      <point x="347" y="497"/>
      <point x="367" y="501"/>
      <point x="386" y="512"/>
      <point x="401" y="532"/>
      <point x="405" y="547" type="qcurve"/>
      <point x="438" y="545" type="line"/>
      <point x="434" y="525"/>
      <point x="414" y="495"/>
      <point x="386" y="474"/>
      <point x="354" y="464"/>
      <point x="339" y="464" type="qcurve"/>
      <point x="317" y="464"/>
      <point x="283" y="483"/>
    </contour>
  </outline>
</glyph>
<glyph name="thorn" format="1">
  <advance width="536"/>
  <unicode hex="00FE"/>
  <outline>
    <contour>
      <point x="129" y="717" type="line"/>
      <point x="62" y="717" type="line"/>
      <point x="67" y="766" type="line"/>
      <point x="190" y="766" type="line"/>
      <point x="135" y="316" type="line"/>
      <point x="158" y="353"/>
      <point x="249" y="409"/>
      <point x="308" y="409" type="qcurve"/>
      <point x="349" y="409"/>
      <point x="416" y="382"/>
      <point x="464" y="334"/>
      <point x="490" y="266"/>
      <point x="490" y="225" type="qcurve"/>
      <point x="490" y="175"/>
      <point x="453" y="90"/>
      <point x="389" y="28"/>
      <point x="303" y="-8"/>
      <point x="254" y="-8" type="qcurve"/>
      <point x="198" y="-8"/>
      <point x="119" y="44"/>
      <point x="106" y="82" type="qcurve"/>
      <point x="104" y="72"/>
      <point x="103" y="53"/>
      <point x="102" y="42" type="qcurve"/>
      <point x="81" y="-126" type="line"/>
      <point x="79" y="-144" type="line"/>
      <point x="151" y="-144" type="line"/>
      <point x="145" y="-193" type="line"/>
      <point x="-50" y="-193" type="line"/>
      <point x="-44" y="-144" type="line"/>
      <point x="24" y="-144" type="line"/>
      <point x="26" y="-125" type="line"/>
    </contour>
    <contour>
      <point x="431" y="219" type="qcurve"/>
      <point x="431" y="248"/>
      <point x="412" y="298"/>
      <point x="377" y="334"/>
      <point x="327" y="355"/>
      <point x="297" y="355" type="qcurve"/>
      <point x="261" y="355"/>
      <point x="197" y="328"/>
      <point x="148" y="282"/>
      <point x="120" y="220"/>
      <point x="120" y="184" type="qcurve"/>
      <point x="120" y="155"/>
      <point x="140" y="104"/>
      <point x="177" y="67"/>
      <point x="228" y="46"/>
      <point x="258" y="46" type="qcurve"/>
      <point x="294" y="46"/>
      <point x="358" y="73"/>
      <point x="404" y="120"/>
      <point x="431" y="183"/>
    </contour>
  </outline>
</glyph>
<glyph name="ydieresis" format="1">
  <advance width="509"/>
  <unicode hex="00FF"/>
  <outline>
    <contour>
      <point x="21" y="400" type="line"/>
      <point x="204" y="400" type="line"/>
      <point x="198" y="352" type="line"/>
      <point x="136" y="352" type="line"/>
      <point x="150" y="313"/>
      <point x="183" y="215"/>
      <point x="210" y="129"/>
      <point x="228" y="67"/>
      <point x="228" y="64" type="qcurve"/>
      <point x="229" y="67"/>
      <point x="262" y="129"/>
      <point x="310" y="215"/>
      <point x="366" y="313"/>
      <point x="390" y="352" type="qcurve"/>
      <point x="331" y="352" type="line"/>
      <point x="337" y="400" type="line"/>
      <point x="519" y="400" type="line"/>
      <point x="513" y="352" type="line"/>
      <point x="451" y="352" type="line"/>
      <point x="159" y="-144" type="line"/>
      <point x="231" y="-144" type="line"/>
      <point x="225" y="-192" type="line"/>
      <point x="29" y="-192" type="line"/>
      <point x="34" y="-144" type="line"/>
      <point x="105" y="-144" type="line"/>
      <point x="117" y="-124"/>
      <point x="143" y="-78"/>
      <point x="167" y="-35"/>
      <point x="188" y="1"/>
      <point x="194" y="11" type="qcurve"/>
      <point x="190" y="20"/>
      <point x="174" y="65"/>
      <point x="154" y="124"/>
      <point x="131" y="193"/>
      <point x="107" y="262"/>
      <point x="85" y="327"/>
      <point x="77" y="352" type="qcurve"/>
      <point x="15" y="352" type="line"/>
    </contour>
    <contour>
      <point x="153" y="513" type="qcurve"/>
      <point x="153" y="532"/>
      <point x="182" y="558"/>
      <point x="199" y="558" type="qcurve"/>
      <point x="213" y="558"/>
      <point x="234" y="537"/>
      <point x="234" y="521" type="qcurve"/>
      <point x="234" y="501"/>
      <point x="205" y="476"/>
      <point x="189" y="476" type="qcurve"/>
      <point x="174" y="476"/>
      <point x="153" y="496"/>
    </contour>
    <contour>
      <point x="332" y="513" type="qcurve"/>
      <point x="332" y="532"/>
      <point x="361" y="558"/>
      <point x="378" y="558" type="qcurve"/>
      <point x="392" y="558"/>
      <point x="413" y="537"/>
      <point x="413" y="521" type="qcurve"/>
      <point x="413" y="501"/>
      <point x="384" y="476"/>
      <point x="368" y="476" type="qcurve"/>
      <point x="354" y="476"/>
      <point x="332" y="496"/>
    </contour>
  </outline>
</glyph>
<glyph name="dcaron" format="1">
  <advance width="552"/>
  <unicode hex="010F"/>
  <outline>
    <contour>
      <point x="415" y="48" type="line"/>
      <point x="483" y="48" type="line"/>
      <point x="477" y="0" type="line"/>
      <point x="354" y="0" type="line"/>
      <point x="359" y="41" type="line"/>
      <point x="366" y="83" type="line"/>
      <point x="341" y="46"/>
      <point x="251" y="-8"/>
      <point x="191" y="-8" type="qcurve"/>
      <point x="149" y="-8"/>
      <point x="82" y="21"/>
      <point x="35" y="70"/>
      <point x="10" y="137"/>
      <point x="10" y="176" type="qcurve"/>
      <point x="10" y="226"/>
      <point x="48" y="311"/>
      <point x="112" y="374"/>
      <point x="196" y="409"/>
      <point x="243" y="409" type="qcurve"/>
      <point x="274" y="409"/>
      <point x="324" y="393"/>
      <point x="362" y="367"/>
      <point x="387" y="333"/>
      <point x="393" y="316" type="qcurve"/>
      <point x="393" y="321"/>
      <point x="399" y="369"/>
      <point x="408" y="440"/>
      <point x="418" y="525"/>
      <point x="429" y="611"/>
      <point x="438" y="689"/>
      <point x="442" y="717" type="qcurve"/>
      <point x="377" y="717" type="line"/>
      <point x="383" y="766" type="line"/>
      <point x="503" y="766" type="line"/>
    </contour>
    <contour>
      <point x="66" y="184" type="qcurve"/>
      <point x="66" y="155"/>
      <point x="86" y="104"/>
      <point x="122" y="67"/>
      <point x="173" y="46"/>
      <point x="203" y="46" type="qcurve"/>
      <point x="239" y="46"/>
      <point x="303" y="73"/>
      <point x="351" y="119"/>
      <point x="379" y="182"/>
      <point x="379" y="217" type="qcurve"/>
      <point x="379" y="246"/>
      <point x="359" y="297"/>
      <point x="323" y="334"/>
      <point x="272" y="355"/>
      <point x="241" y="355" type="qcurve"/>
      <point x="205" y="355"/>
      <point x="141" y="328"/>
      <point x="94" y="282"/>
      <point x="66" y="220"/>
    </contour>
    <contour>
      <point x="594" y="573" type="qcurve"/>
      <point x="568" y="595" type="line"/>
      <point x="592" y="615"/>
      <point x="618" y="675"/>
      <point x="615" y="710" type="qcurve"/>
      <point x="657" y="717" type="line"/>
      <point x="660" y="675"/>
      <point x="626" y="600"/>
    </contour>
  </outline>
</glyph>
<glyph name="uni0122" format="1">
  <advance width="688"/>
  <unicode hex="0122"/>
  <outline>
    <contour>
      <point x="588" y="562" type="line"/>
      <point x="596" y="630" type="line"/>
      <point x="567" y="644"/>
      <point x="497" y="658"/>
      <point x="464" y="658" type="qcurve"/>
      <point x="399" y="658"/>
      <point x="277" y="604"/>
      <point x="182" y="513"/>
      <point x="124" y="390"/>
      <point x="124" y="321" type="qcurve"/>
      <point x="124" y="266"/>
      <point x="161" y="170"/>
      <point x="229" y="98"/>
      <point x="327" y="57"/>
      <point x="388" y="57" type="qcurve"/>
      <point x="420" y="57"/>
      <point x="497" y="72"/>
      <point x="531" y="87" type="qcurve"/>
      <point x="553" y="267" type="line"/>
      <point x="399" y="267" type="line"/>
      <point x="406" y="327" type="line"/>
      <point x="624" y="327" type="line"/>
      <point x="589" y="43" type="line"/>
      <point x="545" y="19"/>
      <point x="436" y="-8"/>
      <point x="380" y="-8" type="qcurve"/>
      <point x="303" y="-8"/>
      <point x="183" y="40"/>
      <point x="99" y="125"/>
      <point x="55" y="240"/>
      <point x="55" y="308" type="qcurve"/>
      <point x="55" y="396"/>
      <point x="125" y="548"/>
      <point x="242" y="659"/>
      <point x="392" y="722"/>
      <point x="472" y="722" type="qcurve"/>
      <point x="525" y="722"/>
      <point x="630" y="694"/>
      <point x="665" y="671" type="qcurve"/>
      <point x="652" y="562" type="line"/>
    </contour>
    <contour>
      <point x="388" y="-21" type="line"/>
      <point x="374" y="-47"/>
      <point x="355" y="-81"/>
      <point x="338" y="-111"/>
      <point x="319" y="-145"/>
      <point x="305" y="-171" type="qcurve"/>
      <point x="256" y="-171" type="line"/>
      <point x="269" y="-145"/>
      <point x="286" y="-111"/>
      <point x="300" y="-81"/>
      <point x="317" y="-47"/>
      <point x="330" y="-21" type="qcurve"/>
    </contour>
  </outline>
</glyph>
<glyph name="hbar" format="1">
  <advance width="529"/>
  <unicode hex="0127"/>
  <outline>
    <contour>
      <point x="120" y="67" type="line"/>
      <point x="117" y="48" type="line"/>
      <point x="190" y="48" type="line"/>
      <point x="184" y="0" type="line"/>
      <point x="-12" y="0" type="line"/>
      <point x="-6" y="48" type="line"/>
      <point x="62" y="48" type="line"/>
      <point x="124" y="558" type="line"/>
      <point x="35" y="558" type="line"/>
      <point x="40" y="597" type="line"/>
      <point x="129" y="597" type="line"/>
      <point x="144" y="717" type="line"/>
      <point x="77" y="717" type="line"/>
      <point x="83" y="766" type="line"/>
      <point x="202" y="766" type="line"/>
      <point x="196" y="717" type="line"/>
      <point x="193" y="694"/>
      <point x="185" y="632"/>
      <point x="181" y="597" type="qcurve"/>
      <point x="308" y="597" type="line"/>
      <point x="303" y="558" type="line"/>
      <point x="176" y="558" type="line"/>
      <point x="145" y="297" type="line"/>
      <point x="173" y="347"/>
      <point x="266" y="409"/>
      <point x="326" y="409" type="qcurve"/>
      <point x="385" y="409"/>
      <point x="446" y="343"/>
      <point x="441" y="289" type="qcurve"/>
      <point x="415" y="74" type="line"/>
      <point x="412" y="48" type="line"/>
      <point x="480" y="48" type="line"/>
      <point x="474" y="0" type="line"/>
      <point x="280" y="0" type="line"/>
      <point x="286" y="48" type="line"/>
      <point x="357" y="48" type="line"/>
      <point x="360" y="72" type="line"/>
      <point x="384" y="270" type="line"/>
      <point x="387" y="304"/>
      <point x="348" y="352"/>
      <point x="305" y="354" type="qcurve"/>
      <point x="273" y="354"/>
      <point x="216" y="333"/>
      <point x="171" y="295"/>
      <point x="141" y="243"/>
      <point x="137" y="212" type="qcurve"/>
      <point x="119" y="67" type="line"/>
    </contour>
  </outline>
</glyph>
<glyph name="itilde" format="1">
  <advance width="250"/>
  <unicode hex="0129"/>
  <outline>
    <contour>
      <point x="131" y="67" type="line"/>
      <point x="128" y="48" type="line"/>
      <point x="201" y="48" type="line"/>
      <point x="195" y="0" type="line"/>
      <point x="-1" y="0" type="line"/>
      <point x="5" y="48" type="line"/>
      <point x="73" y="48" type="line"/>
      <point x="111" y="351" type="line"/>
      <point x="42" y="351" type="line"/>
      <point x="49" y="400" type="line"/>
      <point x="171" y="400" type="line"/>
      <point x="165" y="351" type="line"/>
      <point x="130" y="67" type="line"/>
    </contour>
    <contour>
      <point x="146" y="502" type="qcurve"/>
      <point x="132" y="519"/>
      <point x="111" y="530"/>
      <point x="97" y="530" type="qcurve"/>
      <point x="89" y="530"/>
      <point x="70" y="526"/>
      <point x="51" y="515"/>
      <point x="35" y="495"/>
      <point x="32" y="480" type="qcurve"/>
      <point x="-1" y="482" type="line"/>
      <point x="2" y="502"/>
      <point x="23" y="532"/>
      <point x="51" y="553"/>
      <point x="82" y="563"/>
      <point x="97" y="563" type="qcurve"/>
      <point x="120" y="563"/>
      <point x="153" y="545"/>
      <point x="167" y="528" type="qcurve"/>
      <point x="181" y="511"/>
      <point x="203" y="500"/>
      <point x="217" y="500" type="qcurve"/>
      <point x="224" y="500"/>
      <point x="244" y="504"/>
      <point x="263" y="515"/>
      <point x="278" y="535"/>
      <point x="282" y="550" type="qcurve"/>
      <point x="315" y="548" type="line"/>
      <point x="311" y="528"/>
      <point x="291" y="498"/>
      <point x="263" y="477"/>
      <point x="231" y="467"/>
      <point x="216" y="467" type="qcurve"/>
      <point x="194" y="467"/>
      <point x="160" y="486"/>
    </contour>
  </outline>
</glyph>
<glyph name="iogonek" format="1">
  <advance width="249"/>
  <unicode hex="012F"/>
  <outline>
    <contour>
      <point x="130" y="67" type="line"/>
      <point x="127" y="48" type="line"/>
      <point x="200" y="48" type="line"/>
      <point x="194" y="0" type="line"/>
      <point x="-2" y="0" type="line"/>
      <point x="4" y="48" type="line"/>
      <point x="72" y="48" type="line"/>
      <point x="110" y="351" type="line"/>
      <point x="41" y="351" type="line"/>
      <point x="48" y="400" type="line"/>
      <point x="170" y="400" type="line"/>
      <point x="164" y="351" type="line"/>
      <point x="129" y="67" type="line"/>
    </contour>
    <contour>
      <point x="105" y="0" type="line"/>
      <point x="67" y="0" type="line"/>
      <point x="66" y="-7" type="line"/>
      <point x="64" y="-21"/>
      <point x="53" y="-38"/>
      <point x="39" y="-49"/>
      <point x="24" y="-57"/>
      <point x="17" y="-61" type="qcurve"/>
      <point x="-12" y="-81"/>
      <point x="-33" y="-127"/>
      <point x="-33" y="-151" type="qcurve"/>
      <point x="-33" y="-192"/>
      <point x="12" y="-242"/>
      <point x="53" y="-242" type="qcurve"/>
      <point x="84" y="-242"/>
      <point x="142" y="-208"/>
      <point x="158" y="-173" type="qcurve"/>
      <point x="150" y="-168"/>
      <point x="133" y="-160"/>
      <point x="125" y="-156" type="qcurve"/>
      <point x="117" y="-174"/>
      <point x="85" y="-197"/>
      <point x="63" y="-197" type="qcurve"/>
      <point x="39" y="-197"/>
      <point x="12" y="-166"/>
      <point x="12" y="-143" type="qcurve"/>
      <point x="12" y="-116"/>
      <point x="38" y="-88"/>
      <point x="70" y="-67"/>
      <point x="99" y="-47"/>
      <point x="101" y="-28" type="qcurve"/>
    </contour>
    <contour>
      <point x="121" y="541" type="qcurve"/>
      <point x="121" y="560"/>
      <point x="150" y="585"/>
      <point x="167" y="585" type="qcurve"/>
      <point x="181" y="585"/>
      <point x="201" y="565"/>
      <point x="201" y="549" type="qcurve"/>
      <point x="201" y="529"/>
      <point x="173" y="505"/>
      <point x="157" y="505" type="qcurve"/>
      <point x="143" y="505"/>
      <point x="121" y="525"/>
    </contour>
  </outline>
</glyph>
<glyph name="Idotaccent" format="1">
  <advance width="336"/>
  <unicode hex="0130"/>
  <outline>
    <contour>
      <point x="337" y="714" type="line"/>
      <point x="329" y="654" type="line"/>
      <point x="248" y="654" type="line"/>
      <point x="175" y="60" type="line"/>
      <point x="257" y="60" type="line"/>
      <point x="249" y="0" type="line"/>
      <point x="21" y="0" type="line"/>
      <point x="29" y="60" type="line"/>
      <point x="107" y="60" type="line"/>
      <point x="179" y="654" type="line"/>
      <point x="101" y="654" type="line"/>
      <point x="109" y="714" type="line"/>
    </contour>
    <contour>
      <point x="190" y="795" type="qcurve"/>
      <point x="190" y="814"/>
      <point x="218" y="839"/>
      <point x="235" y="839" type="qcurve"/>
      <point x="249" y="839"/>
      <point x="270" y="819"/>
      <point x="270" y="803" type="qcurve"/>
      <point x="270" y="783"/>
      <point x="242" y="759"/>
      <point x="225" y="759" type="qcurve"/>
      <point x="211" y="759"/>
      <point x="190" y="779"/>
    </contour>
  </outline>
</glyph>
<glyph name="uni013B" format="1">
  <advance width="607"/>
  <unicode hex="013B"/>
  <outline>
    <contour>
      <point x="338" y="714" type="line"/>
      <point x="330" y="654" type="line"/>
      <point x="248" y="654" type="line"/>
      <point x="176" y="65" type="line"/>
      <point x="497" y="65" type="line"/>
      <point x="506" y="140" type="line"/>
      <point x="571" y="140" type="line"/>
      <point x="557" y="33" type="line"/>
      <point x="551" y="33" type="line"/>
      <point x="547" y="0" type="line"/>
      <point x="22" y="0" type="line"/>
      <point x="30" y="60" type="line"/>
      <point x="107" y="60" type="line"/>
      <point x="179" y="654" type="line"/>
      <point x="102" y="654" type="line"/>
      <point x="110" y="714" type="line"/>
    </contour>
    <contour>
      <point x="325" y="-21" type="line"/>
      <point x="311" y="-47"/>
      <point x="292" y="-81"/>
      <point x="275" y="-111"/>
      <point x="256" y="-145"/>
      <point x="242" y="-171" type="qcurve"/>
      <point x="193" y="-171" type="line"/>
      <point x="206" y="-145"/>
      <point x="223" y="-111"/>
      <point x="237" y="-81"/>
      <point x="254" y="-47"/>
      <point x="267" y="-21" type="qcurve"/>
    </contour>
  </outline>
</glyph>
<glyph name="uni013C" format="1">
  <advance width="240"/>
  <unicode hex="013C"/>
  <outline>
    <contour>
      <point x="121" y="67" type="line"/>
      <point x="118" y="48" type="line"/>
      <point x="191" y="48" type="line"/>
      <point x="185" y="0" type="line"/>
      <point x="-11" y="0" type="line"/>
      <point x="-5" y="48" type="line"/>
      <point x="63" y="48" type="line"/>
      <point x="145" y="717" type="line"/>
      <point x="77" y="717" type="line"/>
      <point x="83" y="766" type="line"/>
      <point x="206" y="766" type="line"/>
      <point x="120" y="67" type="line"/>
    </contour>
    <contour>
      <point x="104" y="-21" type="line"/>
      <point x="90" y="-47"/>
      <point x="71" y="-81"/>
      <point x="54" y="-111"/>
      <point x="35" y="-145"/>
      <point x="21" y="-171" type="qcurve"/>
      <point x="-28" y="-171" type="line"/>
      <point x="-15" y="-145"/>
      <point x="2" y="-111"/>
      <point x="16" y="-81"/>
      <point x="33" y="-47"/>
      <point x="46" y="-21" type="qcurve"/>
    </contour>
  </outline>
</glyph>
<glyph name="lcaron" format="1">
  <advance width="240"/>
  <unicode hex="013E"/>
  <outline>
    <contour>
      <point x="107" y="67" type="line"/>
      <point x="104" y="48" type="line"/>
      <point x="177" y="48" type="line"/>
      <point x="171" y="0" type="line"/>
      <point x="-25" y="0" type="line"/>
      <point x="-19" y="48" type="line"/>
      <point x="49" y="48" type="line"/>
      <point x="131" y="717" type="line"/>
      <point x="63" y="717" type="line"/>
      <point x="69" y="766" type="line"/>
      <point x="192" y="766" type="line"/>
      <point x="106" y="67" type="line"/>
    </contour>
    <contour>
      <point x="276" y="573" type="qcurve"/>
      <point x="250" y="595" type="line"/>
      <point x="274" y="615"/>
      <point x="300" y="675"/>
      <point x="297" y="710" type="qcurve"/>
      <point x="339" y="717" type="line"/>
      <point x="342" y="675"/>
      <point x="308" y="600"/>
    </contour>
  </outline>
</glyph>
<glyph name="ncaron" format="1">
  <advance width="538"/>
  <unicode hex="0148"/>
  <outline>
    <contour>
      <point x="425" y="74" type="line"/>
      <point x="422" y="48" type="line"/>
      <point x="490" y="48" type="line"/>
      <point x="484" y="0" type="line"/>
      <point x="290" y="0" type="line"/>
      <point x="296" y="48" type="line"/>
      <point x="367" y="48" type="line"/>
      <point x="370" y="72" type="line"/>
      <point x="394" y="270" type="line"/>
      <point x="397" y="304"/>
      <point x="358" y="352"/>
      <point x="315" y="354" type="qcurve"/>
      <point x="283" y="354"/>
      <point x="226" y="333"/>
      <point x="181" y="295"/>
      <point x="151" y="243"/>
      <point x="147" y="212" type="qcurve"/>
      <point x="129" y="67" type="line"/>
      <point x="130" y="67" type="line"/>
      <point x="127" y="48" type="line"/>
      <point x="200" y="48" type="line"/>
      <point x="194" y="0" type="line"/>
      <point x="-2" y="0" type="line"/>
      <point x="4" y="48" type="line"/>
      <point x="72" y="48" type="line"/>
      <point x="110" y="351" type="line"/>
      <point x="41" y="351" type="line"/>
      <point x="48" y="400" type="line"/>
      <point x="162" y="400" type="line"/>
      <point x="155" y="297" type="line"/>
      <point x="183" y="347"/>
      <point x="276" y="409"/>
      <point x="336" y="409" type="qcurve"/>
      <point x="395" y="409"/>
      <point x="456" y="343"/>
      <point x="451" y="289" type="qcurve"/>
    </contour>
    <contour>
      <point x="294" y="483" type="qcurve"/>
      <point x="269" y="515"/>
      <point x="248" y="542" type="qcurve"/>
      <point x="230" y="565"/>
      <point x="195" y="609"/>
      <point x="190" y="617" type="qcurve"/>
      <point x="233" y="617" type="line"/>
      <point x="302" y="547" type="line"/>
      <point x="388" y="617" type="line"/>
      <point x="432" y="617" type="line"/>
      <point x="424" y="608"/>
      <point x="379" y="564"/>
      <point x="355" y="541" type="qcurve"/>
      <point x="327" y="514"/>
    </contour>
  </outline>
</glyph>
<glyph name="Rcaron" format="1">
  <advance width="652"/>
  <unicode hex="0158"/>
  <outline>
    <contour>
      <point x="631" y="60" type="line"/>
      <point x="624" y="0" type="line"/>
      <point x="497" y="0" type="line"/>
      <point x="488" y="18"/>
      <point x="451" y="93"/>
      <point x="409" y="178"/>
      <point x="368" y="261"/>
      <point x="354" y="288" type="qcurve"/>
      <point x="343" y="287"/>
      <point x="321" y="286"/>
      <point x="310" y="286" type="qcurve"/>
      <point x="204" y="286" type="line"/>
      <point x="176" y="60" type="line"/>
      <point x="256" y="60" type="line"/>
      <point x="248" y="0" type="line"/>
      <point x="20" y="0" type="line"/>
      <point x="28" y="60" type="line"/>
      <point x="107" y="60" type="line"/>
      <point x="180" y="654" type="line"/>
      <point x="100" y="654" type="line"/>
      <point x="108" y="714" type="line"/>
      <point x="361" y="714" type="line"/>
      <point x="402" y="714"/>
      <point x="478" y="692"/>
      <point x="536" y="646"/>
      <point x="570" y="577"/>
      <point x="570" y="530" type="qcurve"/>
      <point x="570" y="497"/>
      <point x="553" y="431"/>
      <point x="519" y="372"/>
      <point x="465" y="323"/>
      <point x="428" y="308" type="qcurve"/>
      <point x="436" y="291"/>
      <point x="465" y="232"/>
      <point x="498" y="163"/>
      <point x="533" y="90"/>
      <point x="548" y="60" type="qcurve"/>
    </contour>
    <contour>
      <point x="212" y="351" type="line"/>
      <point x="318" y="351" type="line"/>
      <point x="370" y="351"/>
      <point x="441" y="387"/>
      <point x="483" y="440"/>
      <point x="501" y="498"/>
      <point x="501" y="521" type="qcurve"/>
      <point x="501" y="546"/>
      <point x="483" y="593"/>
      <point x="446" y="629"/>
      <point x="391" y="650"/>
      <point x="355" y="650" type="qcurve"/>
      <point x="248" y="650" type="line"/>
    </contour>
    <contour>
      <point x="360" y="757" type="qcurve"/>
      <point x="335" y="789"/>
      <point x="314" y="816" type="qcurve"/>
      <point x="296" y="839"/>
      <point x="261" y="883"/>
      <point x="256" y="891" type="qcurve"/>
      <point x="299" y="891" type="line"/>
      <point x="368" y="821" type="line"/>
      <point x="454" y="891" type="line"/>
      <point x="498" y="891" type="line"/>
      <point x="490" y="882"/>
      <point x="445" y="838"/>
      <point x="421" y="815" type="qcurve"/>
      <point x="393" y="788"/>
    </contour>
  </outline>
</glyph>
<glyph name="sacute" format="1">
  <advance width="348"/>
  <unicode hex="015B"/>
  <outline>
    <contour>
      <point x="70" y="111" type="line"/>
      <point x="64" y="66" type="line"/>
      <point x="77" y="58"/>
      <point x="119" y="45"/>
      <point x="140" y="45" type="qcurve"/>
      <point x="155" y="45"/>
      <point x="186" y="53"/>
      <point x="213" y="71"/>
      <point x="230" y="98"/>
      <point x="230" y="117" type="qcurve"/>
      <point x="230" y="136"/>
      <point x="205" y="160"/>
      <point x="166" y="178"/>
      <point x="122" y="195"/>
      <point x="83" y="219"/>
      <point x="58" y="256"/>
      <point x="58" y="285" type="qcurve"/>
      <point x="58" y="317"/>
      <point x="82" y="363"/>
      <point x="121" y="393"/>
      <point x="170" y="407"/>
      <point x="194" y="407" type="qcurve"/>
      <point x="206" y="407"/>
      <point x="235" y="403"/>
      <point x="265" y="393"/>
      <point x="291" y="378"/>
      <point x="300" y="366" type="qcurve"/>
      <point x="292" y="292" type="line"/>
      <point x="244" y="292" type="line"/>
      <point x="250" y="340" type="line"/>
      <point x="226" y="353"/>
      <point x="189" y="353" type="qcurve"/>
      <point x="177" y="353"/>
      <point x="150" y="347"/>
      <point x="128" y="333"/>
      <point x="114" y="309"/>
      <point x="114" y="292" type="qcurve"/>
      <point x="114" y="272"/>
      <point x="139" y="247"/>
      <point x="178" y="229"/>
      <point x="222" y="211"/>
      <point x="261" y="187"/>
      <point x="286" y="151"/>
      <point x="286" y="123" type="qcurve"/>
      <point x="286" y="96"/>
      <point x="264" y="49"/>
      <point x="224" y="13"/>
      <point x="167" y="-8"/>
      <point x="132" y="-8" type="qcurve"/>
      <point x="117" y="-8"/>
      <point x="83" y="-3"/>
      <point x="51" y="7"/>
      <point x="22" y="25"/>
      <point x="13" y="38" type="qcurve"/>
      <point x="23" y="111" type="line"/>
    </contour>
    <contour>
      <point x="155" y="483" type="line"/>
      <point x="182" y="516"/>
      <point x="236" y="583"/>
      <point x="262" y="617" type="qcurve"/>
      <point x="322" y="617" type="line"/>
      <point x="199" y="483" type="line"/>
    </contour>
  </outline>
</glyph>
<glyph name="tcaron" format="1">
  <advance width="282"/>
  <unicode hex="0165"/>
  <outline>
    <contour>
      <point x="107" y="575" type="line"/>
      <point x="162" y="575" type="line"/>
      <point x="140" y="396" type="line"/>
      <point x="259" y="396" type="line"/>
      <point x="252" y="346" type="line"/>
      <point x="134" y="346" type="line"/>
      <point x="98" y="48" type="line"/>
      <point x="192" y="48" type="line"/>
      <point x="186" y="0" type="line"/>
      <point x="37" y="0" type="line"/>
      <point x="45" y="68" type="line"/>
      <point x="79" y="346" type="line"/>
      <point x="-2" y="346" type="line"/>
      <point x="5" y="396" type="line"/>
      <point x="85" y="396" type="line"/>
    </contour>
    <contour>
      <point x="310" y="573" type="qcurve"/>
      <point x="284" y="595" type="line"/>
      <point x="308" y="615"/>
      <point x="334" y="675"/>
      <point x="331" y="710" type="qcurve"/>
      <point x="373" y="717" type="line"/>
      <point x="376" y="675"/>
      <point x="342" y="600"/>
    </contour>
  </outline>
</glyph>
<glyph name="Tbar" format="1">
  <advance width="568"/>
  <unicode hex="0166"/>
  <outline>
    <contour>
      <point x="497" y="562" type="line"/>
      <point x="507" y="649" type="line"/>
      <point x="364" y="649" type="line"/>
      <point x="346" y="502" type="line"/>
      <point x="424" y="502" type="line"/>
      <point x="419" y="463" type="line"/>
      <point x="341" y="463" type="line"/>
      <point x="285" y="0" type="line"/>
      <point x="216" y="0" type="line"/>
      <point x="273" y="463" type="line"/>
      <point x="187" y="463" type="line"/>
      <point x="192" y="502" type="line"/>
      <point x="278" y="502" type="line"/>
      <point x="296" y="649" type="line"/>
      <point x="152" y="649" type="line"/>
      <point x="141" y="562" type="line"/>
      <point x="77" y="562" type="line"/>
      <point x="93" y="697" type="line"/>
      <point x="95" y="714" type="line"/>
      <point x="580" y="714" type="line"/>
      <point x="578" y="697" type="line"/>
      <point x="572" y="649" type="line"/>
      <point x="561" y="562" type="line"/>
    </contour>
  </outline>
</glyph>
<glyph name="Uring" format="1">
  <advance width="747"/>
  <unicode hex="016E"/>
  <outline>
    <contour>
      <point x="322" y="714" type="line"/>
      <point x="314" y="654" type="line"/>
      <point x="234" y="654" type="line"/>
      <point x="185" y="246" type="line"/>
      <point x="179" y="203"/>
      <point x="198" y="133"/>
      <point x="242" y="84"/>
      <point x="307" y="57"/>
      <point x="347" y="57" type="qcurve"/>
      <point x="386" y="57"/>
      <point x="458" y="84"/>
      <point x="514" y="133"/>
      <point x="551" y="203"/>
      <point x="556" y="246" type="qcurve"/>
      <point x="606" y="654" type="line"/>
      <point x="614" y="714" type="line"/>
      <point x="761" y="714" type="line"/>
      <point x="753" y="654" type="line"/>
      <point x="674" y="654" type="line"/>
      <point x="625" y="243" type="line"/>
      <point x="617" y="184"/>
      <point x="566" y="91"/>
      <point x="490" y="27"/>
      <point x="393" y="-8"/>
      <point x="339" y="-8" type="qcurve"/>
      <point x="285" y="-8"/>
      <point x="197" y="27"/>
      <point x="137" y="91"/>
      <point x="109" y="184"/>
      <point x="116" y="243" type="qcurve"/>
      <point x="166" y="654" type="line"/>
      <point x="86" y="654" type="line"/>
      <point x="94" y="714" type="line"/>
    </contour>
    <contour>
      <point x="364" y="817" type="qcurve"/>
      <point x="364" y="834"/>
      <point x="378" y="864"/>
      <point x="402" y="887"/>
      <point x="433" y="900"/>
      <point x="450" y="900" type="qcurve"/>
      <point x="479" y="900"/>
      <point x="517" y="861"/>
      <point x="517" y="832" type="qcurve"/>
      <point x="517" y="815"/>
      <point x="503" y="785"/>
      <point x="479" y="762"/>
      <point x="448" y="749"/>
      <point x="431" y="749" type="qcurve"/>
      <point x="402" y="749"/>
      <point x="364" y="788"/>
    </contour>
    <contour>
      <point x="399" y="820" type="qcurve"/>
      <point x="399" y="805"/>
      <point x="419" y="783"/>
      <point x="435" y="783" type="qcurve"/>
      <point x="453" y="783"/>
      <point x="481" y="810"/>
      <point x="481" y="828" type="qcurve"/>
      <point x="481" y="843"/>
      <point x="461" y="865"/>
      <point x="446" y="865" type="qcurve"/>
      <point x="427" y="865"/>
      <point x="399" y="838"/>
    </contour>
  </outline>
</glyph>
<glyph name="uring" format="1">
  <advance width="529"/>
  <unicode hex="016F"/>
  <outline>
    <contour>
      <point x="390" y="333" type="line"/>
      <point x="392" y="351" type="line"/>
      <point x="319" y="351" type="line"/>
      <point x="325" y="400" type="line"/>
      <point x="453" y="400" type="line"/>
      <point x="410" y="48" type="line"/>
      <point x="477" y="48" type="line"/>
      <point x="472" y="0" type="line"/>
      <point x="359" y="0" type="line"/>
      <point x="365" y="103" type="line"/>
      <point x="337" y="53"/>
      <point x="244" y="-9"/>
      <point x="183" y="-9" type="qcurve"/>
      <point x="124" y="-9"/>
      <point x="63" y="57"/>
      <point x="68" y="111" type="qcurve"/>
      <point x="94" y="326" type="line"/>
      <point x="97" y="351" type="line"/>
      <point x="29" y="351" type="line"/>
      <point x="35" y="400" type="line"/>
      <point x="158" y="400" type="line"/>
      <point x="149" y="328" type="line"/>
      <point x="125" y="130" type="line"/>
      <point x="123" y="96"/>
      <point x="161" y="48"/>
      <point x="204" y="46" type="qcurve"/>
      <point x="235" y="46"/>
      <point x="293" y="67"/>
      <point x="338" y="104"/>
      <point x="368" y="156"/>
      <point x="372" y="187" type="qcurve"/>
    </contour>
    <contour>
      <point x="207" y="516" type="qcurve"/>
      <point x="207" y="533"/>
      <point x="221" y="563"/>
      <point x="245" y="586"/>
      <point x="276" y="599"/>
      <point x="293" y="599" type="qcurve"/>
      <point x="322" y="599"/>
      <point x="359" y="560"/>
      <point x="359" y="531" type="qcurve"/>
      <point x="359" y="497"/>
      <point x="308" y="448"/>
      <point x="274" y="448" type="qcurve"/>
      <point x="245" y="448"/>
      <point x="207" y="487"/>
    </contour>
    <contour>
      <point x="242" y="519" type="qcurve"/>
      <point x="242" y="504"/>
      <point x="262" y="482"/>
      <point x="279" y="482" type="qcurve"/>
      <point x="296" y="482"/>
      <point x="325" y="509"/>
      <point x="325" y="527" type="qcurve"/>
      <point x="325" y="543"/>
      <point x="304" y="564"/>
      <point x="289" y="564" type="qcurve"/>
      <point x="270" y="564"/>
      <point x="242" y="538"/>
    </contour>
  </outline>
</glyph>
<glyph name="uhungarumlaut" format="1">
  <advance width="529"/>
  <unicode hex="0171"/>
  <outline>
    <contour>
      <point x="472" y="0" type="line"/>
      <point x="359" y="0" type="line"/>
      <point x="365" y="103" type="line"/>
      <point x="337" y="53"/>
      <point x="244" y="-9"/>
      <point x="183" y="-9" type="qcurve"/>
      <point x="124" y="-9"/>
      <point x="63" y="57"/>
      <point x="68" y="111" type="qcurve"/>
      <point x="97" y="351" type="line"/>
      <point x="29" y="351" type="line"/>
      <point x="35" y="400" type="line"/>
      <point x="158" y="400" type="line"/>
      <point x="149" y="328" type="line"/>
      <point x="125" y="130" type="line"/>
      <point x="123" y="96"/>
      <point x="161" y="48"/>
      <point x="204" y="46" type="qcurve"/>
      <point x="235" y="46"/>
      <point x="293" y="67"/>
      <point x="338" y="104"/>
      <point x="368" y="156"/>
      <point x="372" y="187" type="qcurve"/>
      <point x="392" y="351" type="line"/>
      <point x="319" y="351" type="line"/>
      <point x="325" y="400" type="line"/>
      <point x="453" y="400" type="line"/>
      <point x="410" y="48" type="line"/>
      <point x="477" y="48" type="line"/>
    </contour>
    <contour>
      <point x="350" y="483" type="line"/>
      <point x="457" y="617" type="line"/>
      <point x="517" y="617" type="line"/>
      <point x="393" y="483" type="line"/>
    </contour>
    <contour>
      <point x="130" y="483" type="line"/>
      <point x="157" y="516"/>
      <point x="211" y="583"/>
      <point x="237" y="617" type="qcurve"/>
      <point x="297" y="617" type="line"/>
      <point x="174" y="483" type="line"/>
    </contour>
  </outline>
</glyph>
<glyph name="zacute" format="1">
  <advance width="421"/>
  <unicode hex="017A"/>
  <outline>
    <contour>
      <point x="366" y="111" type="line"/>
      <point x="355" y="18" type="line"/>
      <point x="353" y="0" type="line"/>
      <point x="-12" y="0" type="line"/>
      <point x="280" y="352" type="line"/>
      <point x="117" y="352" type="line"/>
      <point x="84" y="352"/>
      <point x="50" y="381"/>
      <point x="52" y="411" type="qcurve"/>
      <point x="55" y="438" type="line"/>
      <point x="105" y="438" type="line"/>
      <point x="104" y="425" type="line"/>
      <point x="102" y="411"/>
      <point x="117" y="400"/>
      <point x="134" y="400" type="qcurve"/>
      <point x="386" y="400" type="line"/>
      <point x="99" y="54" type="line"/>
      <point x="312" y="54" type="line"/>
      <point x="319" y="111" type="line"/>
    </contour>
    <contour>
      <point x="203" y="483" type="line"/>
      <point x="230" y="516"/>
      <point x="284" y="583"/>
      <point x="310" y="617" type="qcurve"/>
      <point x="370" y="617" type="line"/>
      <point x="247" y="483" type="line"/>
    </contour>
  </outline>
</glyph>
<glyph name="Zcaron" format="1">
  <advance width="652"/>
  <unicode hex="017D"/>
  <outline>
    <contour>
      <point x="194" y="714" type="qcurve"/>
      <point x="642" y="714" type="line"/>
      <point x="106" y="66" type="line"/>
      <point x="521" y="66" type="line"/>
      <point x="535" y="173" type="line"/>
      <point x="599" y="173" type="line"/>
      <point x="586" y="66" type="line"/>
      <point x="581" y="24" type="line"/>
      <point x="578" y="0" type="line"/>
      <point x="-22" y="0" type="line"/>
      <point x="8" y="36"/>
      <point x="95" y="143"/>
      <point x="196" y="267"/>
      <point x="303" y="399"/>
      <point x="404" y="522"/>
      <point x="490" y="626"/>
      <point x="520" y="660" type="qcurve"/>
      <point x="168" y="660" type="line"/>
      <point x="136" y="660"/>
      <point x="98" y="686"/>
      <point x="100" y="715" type="qcurve"/>
      <point x="104" y="750" type="line"/>
      <point x="167" y="750" type="line"/>
      <point x="166" y="737" type="line"/>
      <point x="164" y="723"/>
      <point x="177" y="714"/>
    </contour>
    <contour>
      <point x="383" y="753" type="qcurve"/>
      <point x="358" y="785"/>
      <point x="337" y="812" type="qcurve"/>
      <point x="319" y="835"/>
      <point x="284" y="879"/>
      <point x="279" y="887" type="qcurve"/>
      <point x="322" y="887" type="line"/>
      <point x="391" y="817" type="line"/>
      <point x="477" y="887" type="line"/>
      <point x="521" y="887" type="line"/>
      <point x="513" y="878"/>
      <point x="468" y="834"/>
      <point x="444" y="811" type="qcurve"/>
      <point x="416" y="784"/>
    </contour>
  </outline>
</glyph>
<glyph name="zcaron" format="1">
  <advance width="421"/>
  <unicode hex="017E"/>
  <outline>
    <contour>
      <point x="366" y="111" type="line"/>
      <point x="355" y="18" type="line"/>
      <point x="353" y="0" type="line"/>
      <point x="-12" y="0" type="line"/>
      <point x="280" y="352" type="line"/>
      <point x="117" y="352" type="line"/>
      <point x="84" y="352"/>
      <point x="50" y="381"/>
      <point x="52" y="411" type="qcurve"/>
      <point x="55" y="438" type="line"/>
      <point x="105" y="438" type="line"/>
      <point x="104" y="425" type="line"/>
      <point x="102" y="411"/>
      <point x="117" y="400"/>
      <point x="134" y="400" type="qcurve"/>
      <point x="386" y="400" type="line"/>
      <point x="99" y="54" type="line"/>
      <point x="312" y="54" type="line"/>
      <point x="319" y="111" type="line"/>
    </contour>
    <contour>
      <point x="241" y="483" type="qcurve"/>
      <point x="216" y="515"/>
      <point x="195" y="542" type="qcurve"/>
      <point x="177" y="565"/>
      <point x="142" y="609"/>
      <point x="137" y="617" type="qcurve"/>
      <point x="180" y="617" type="line"/>
      <point x="249" y="547" type="line"/>
      <point x="335" y="617" type="line"/>
      <point x="379" y="617" type="line"/>
      <point x="371" y="608"/>
      <point x="326" y="564"/>
      <point x="302" y="541" type="qcurve"/>
      <point x="274" y="514"/>
    </contour>
  </outline>
</glyph>
<glyph name="circumflex" format="1">
  <advance width="450"/>
  <unicode hex="02C6"/>
  <outline>
    <contour>
      <point x="310" y="617" type="qcurve"/>
      <point x="335" y="586"/>
      <point x="356" y="559" type="qcurve"/>
      <point x="374" y="536"/>
      <point x="408" y="491"/>
      <point x="414" y="483" type="qcurve"/>
      <point x="371" y="483" type="line"/>
      <point x="302" y="553" type="line"/>
      <point x="216" y="483" type="line"/>
      <point x="172" y="483" type="line"/>
      <point x="180" y="491"/>
      <point x="225" y="535"/>
      <point x="249" y="558" type="qcurve"/>
      <point x="277" y="585"/>
    </contour>
  </outline>
</glyph>
<glyph name="ring" format="1">
  <advance width="478"/>
  <unicode hex="02DA"/>
  <outline>
    <contour>
      <point x="279" y="507" type="qcurve"/>
      <point x="279" y="492"/>
      <point x="300" y="470"/>
      <point x="316" y="470" type="qcurve"/>
      <point x="334" y="470"/>
      <point x="362" y="497"/>
      <point x="362" y="515" type="qcurve"/>
      <point x="362" y="531"/>
      <point x="342" y="552"/>
      <point x="326" y="552" type="qcurve"/>
      <point x="308" y="552"/>
      <point x="279" y="526"/>
    </contour>
    <contour>
      <point x="245" y="504" type="qcurve"/>
      <point x="245" y="538"/>
      <point x="296" y="587"/>
      <point x="330" y="587" type="qcurve"/>
      <point x="359" y="587"/>
      <point x="397" y="548"/>
      <point x="397" y="520" type="qcurve"/>
      <point x="397" y="485"/>
      <point x="346" y="436"/>
      <point x="312" y="436" type="qcurve"/>
      <point x="283" y="436"/>
      <point x="245" y="475"/>
    </contour>
  </outline>
</glyph>
<glyph name="ogonek" format="1">
  <advance width="660"/>
  <unicode hex="02DB"/>
  <outline>
    <contour>
      <point x="230" y="-28" type="line"/>
      <point x="228" y="-47"/>
      <point x="199" y="-67"/>
      <point x="167" y="-88"/>
      <point x="141" y="-116"/>
      <point x="141" y="-143" type="qcurve"/>
      <point x="141" y="-166"/>
      <point x="168" y="-197"/>
      <point x="192" y="-197" type="qcurve"/>
      <point x="214" y="-197"/>
      <point x="246" y="-174"/>
      <point x="254" y="-156" type="qcurve"/>
      <point x="262" y="-160"/>
      <point x="279" y="-168"/>
      <point x="287" y="-173" type="qcurve"/>
      <point x="271" y="-208"/>
      <point x="213" y="-242"/>
      <point x="182" y="-242" type="qcurve"/>
      <point x="141" y="-242"/>
      <point x="96" y="-192"/>
      <point x="96" y="-151" type="qcurve"/>
      <point x="96" y="-127"/>
      <point x="117" y="-81"/>
      <point x="146" y="-61" type="qcurve"/>
      <point x="153" y="-57"/>
      <point x="168" y="-49"/>
      <point x="182" y="-38"/>
      <point x="193" y="-21"/>
      <point x="195" y="-7" type="qcurve"/>
      <point x="196" y="0" type="line"/>
      <point x="234" y="0" type="line"/>
    </contour>
  </outline>
</glyph>
<glyph name="tilde" format="1">
  <advance width="596"/>
  <unicode hex="02DC"/>
  <outline>
    <contour>
      <point x="371" y="499" type="qcurve"/>
      <point x="357" y="516"/>
      <point x="336" y="527"/>
      <point x="322" y="527" type="qcurve"/>
      <point x="314" y="527"/>
      <point x="295" y="523"/>
      <point x="276" y="512"/>
      <point x="260" y="492"/>
      <point x="257" y="477" type="qcurve"/>
      <point x="224" y="479" type="line"/>
      <point x="227" y="499"/>
      <point x="248" y="529"/>
      <point x="276" y="550"/>
      <point x="307" y="560"/>
      <point x="322" y="560" type="qcurve"/>
      <point x="345" y="560"/>
      <point x="378" y="542"/>
      <point x="392" y="525" type="qcurve"/>
      <point x="406" y="508"/>
      <point x="428" y="497"/>
      <point x="442" y="497" type="qcurve"/>
      <point x="449" y="497"/>
      <point x="469" y="501"/>
      <point x="488" y="512"/>
      <point x="503" y="532"/>
      <point x="507" y="547" type="qcurve"/>
      <point x="540" y="545" type="line"/>
      <point x="536" y="525"/>
      <point x="516" y="495"/>
      <point x="488" y="474"/>
      <point x="456" y="464"/>
      <point x="441" y="464" type="qcurve"/>
      <point x="419" y="464"/>
      <point x="385" y="483"/>
    </contour>
  </outline>
</glyph>
<glyph name="endash" format="1">
  <advance width="435"/>
  <unicode hex="2013"/>
  <outline>
    <contour>
      <point x="53" y="173" type="line"/>
      <point x="60" y="230" type="line"/>
      <point x="364" y="230" type="line"/>
      <point x="356" y="173" type="line"/>
    </contour>
  </outline>
</glyph>
<glyph name="quotesinglbase" format="1">
  <advance width="195"/>
  <unicode hex="201A"/>
  <outline>
    <contour>
      <point x="34" y="-51" type="qcurve"/>
      <point x="27" y="-46"/>
      <point x="14" y="-35"/>
      <point x="8" y="-29" type="qcurve"/>
      <point x="31" y="-9"/>
      <point x="57" y="51"/>
      <point x="55" y="86" type="qcurve"/>
      <point x="96" y="93" type="line"/>
      <point x="99" y="51"/>
      <point x="66" y="-24"/>
    </contour>
  </outline>
</glyph>
<glyph name="quotedblleft" format="1">
  <advance width="286"/>
  <unicode hex="201C"/>
  <outline>
    <contour>
      <point x="168" y="595" type="qcurve"/>
      <point x="154" y="584"/>
      <point x="137" y="573" type="qcurve"/>
      <point x="112" y="600"/>
      <point x="96" y="675"/>
      <point x="110" y="717" type="qcurve"/>
      <point x="149" y="710" type="line"/>
      <point x="138" y="675"/>
      <point x="150" y="615"/>
    </contour>
    <contour>
      <point x="273" y="595" type="qcurve"/>
      <point x="259" y="584"/>
      <point x="242" y="573" type="qcurve"/>
      <point x="217" y="600"/>
      <point x="201" y="675"/>
      <point x="215" y="717" type="qcurve"/>
      <point x="254" y="710" type="line"/>
      <point x="243" y="675"/>
      <point x="255" y="615"/>
    </contour>
  </outline>
</glyph>
<glyph name="perthousand" format="1">
  <advance width="983"/>
  <unicode hex="2030"/>
  <outline>
    <contour>
      <point x="429" y="105" type="qcurve"/>
      <point x="429" y="81"/>
      <point x="460" y="48"/>
      <point x="485" y="48" type="qcurve"/>
      <point x="514" y="48"/>
      <point x="557" y="89"/>
      <point x="557" y="120" type="qcurve"/>
      <point x="557" y="144"/>
      <point x="526" y="176"/>
      <point x="500" y="176" type="qcurve"/>
      <point x="471" y="176"/>
      <point x="429" y="135"/>
    </contour>
    <contour>
      <point x="478" y="-9" type="qcurve"/>
      <point x="431" y="-9"/>
      <point x="370" y="54"/>
      <point x="370" y="100" type="qcurve"/>
      <point x="370" y="127"/>
      <point x="393" y="176"/>
      <point x="431" y="212"/>
      <point x="481" y="233"/>
      <point x="508" y="233" type="qcurve"/>
      <point x="531" y="233"/>
      <point x="570" y="216"/>
      <point x="599" y="187"/>
      <point x="616" y="147"/>
      <point x="616" y="124" type="qcurve"/>
      <point x="616" y="97"/>
      <point x="593" y="48"/>
      <point x="554" y="12"/>
      <point x="505" y="-9"/>
    </contour>
    <contour>
      <point x="117" y="385" type="qcurve"/>
      <point x="117" y="360"/>
      <point x="148" y="328"/>
      <point x="173" y="328" type="qcurve"/>
      <point x="202" y="328"/>
      <point x="245" y="369"/>
      <point x="245" y="399" type="qcurve"/>
      <point x="245" y="423"/>
      <point x="214" y="455"/>
      <point x="188" y="455" type="qcurve"/>
      <point x="159" y="455"/>
      <point x="117" y="415"/>
    </contour>
    <contour>
      <point x="166" y="271" type="qcurve"/>
      <point x="119" y="271"/>
      <point x="58" y="334"/>
      <point x="58" y="380" type="qcurve"/>
      <point x="58" y="407"/>
      <point x="81" y="456"/>
      <point x="119" y="492"/>
      <point x="169" y="513"/>
      <point x="196" y="513" type="qcurve"/>
      <point x="219" y="513"/>
      <point x="258" y="496"/>
      <point x="287" y="467"/>
      <point x="304" y="427"/>
      <point x="304" y="404" type="qcurve"/>
      <point x="304" y="377"/>
      <point x="281" y="328"/>
      <point x="242" y="292"/>
      <point x="193" y="271"/>
    </contour>
    <contour>
      <point x="121" y="0" type="line"/>
      <point x="212" y="127"/>
      <point x="392" y="377"/>
      <point x="483" y="504" type="qcurve"/>
      <point x="547" y="504" type="line"/>
      <point x="456" y="377"/>
      <point x="276" y="127"/>
      <point x="185" y="0" type="qcurve"/>
    </contour>
    <contour>
      <point x="739" y="105" type="qcurve"/>
      <point x="739" y="81"/>
      <point x="770" y="48"/>
      <point x="795" y="48" type="qcurve"/>
      <point x="824" y="48"/>
      <point x="867" y="89"/>
      <point x="867" y="120" type="qcurve"/>
      <point x="867" y="144"/>
      <point x="836" y="176"/>
      <point x="810" y="176" type="qcurve"/>
      <point x="781" y="176"/>
      <point x="739" y="135"/>
    </contour>
    <contour>
      <point x="788" y="-9" type="qcurve"/>
      <point x="741" y="-9"/>
      <point x="680" y="54"/>
      <point x="680" y="100" type="qcurve"/>
      <point x="680" y="127"/>
      <point x="703" y="176"/>
      <point x="741" y="212"/>
      <point x="791" y="233"/>
      <point x="818" y="233" type="qcurve"/>
      <point x="841" y="233"/>
      <point x="880" y="216"/>
      <point x="909" y="187"/>
      <point x="926" y="147"/>
      <point x="926" y="124" type="qcurve"/>
      <point x="926" y="97"/>
      <point x="903" y="48"/>
      <point x="864" y="12"/>
      <point x="815" y="-9"/>
    </contour>
  </outline>
</glyph>
<glyph name="guilsinglleft" format="1">
  <advance width="281"/>
  <unicode hex="2039"/>
  <outline>
    <contour>
      <point x="191" y="62" type="line"/>
      <point x="41" y="241" type="line"/>
      <point x="56" y="253"/>
      <point x="109" y="303"/>
      <point x="168" y="357"/>
      <point x="221" y="407"/>
      <point x="235" y="419" type="qcurve"/>
      <point x="227" y="352" type="line"/>
      <point x="215" y="341"/>
      <point x="186" y="312"/>
      <point x="154" y="281"/>
      <point x="124" y="252"/>
      <point x="112" y="241" type="qcurve"/>
      <point x="121" y="230"/>
      <point x="144" y="201"/>
      <point x="167" y="169"/>
      <point x="190" y="139"/>
      <point x="199" y="128" type="qcurve"/>
    </contour>
  </outline>
</glyph>
<glyph name="guilsinglright" format="1">
  <advance width="281"/>
  <unicode hex="203A"/>
  <outline>
    <contour>
      <point x="46" y="128" type="line"/>
      <point x="58" y="139"/>
      <point x="87" y="169"/>
      <point x="119" y="201"/>
      <point x="149" y="230"/>
      <point x="161" y="241" type="qcurve"/>
      <point x="152" y="252"/>
      <point x="129" y="281"/>
      <point x="106" y="312"/>
      <point x="83" y="341"/>
      <point x="74" y="352" type="qcurve"/>
      <point x="82" y="419" type="line"/>
      <point x="93" y="407"/>
      <point x="134" y="357"/>
      <point x="179" y="303"/>
      <point x="221" y="253"/>
      <point x="232" y="241" type="qcurve"/>
      <point x="38" y="62" type="line"/>
    </contour>
  </outline>
</glyph>
<glyph name="Euro" format="1">
  <advance width="543"/>
  <unicode hex="20AC"/>
  <outline>
    <contour>
      <point x="57" y="400" type="line"/>
      <point x="124" y="400" type="line"/>
      <point x="138" y="456"/>
      <point x="194" y="552"/>
      <point x="271" y="623"/>
      <point x="369" y="663"/>
      <point x="425" y="663" type="qcurve"/>
      <point x="463" y="663"/>
      <point x="519" y="644"/>
      <point x="533" y="636" type="qcurve"/>
      <point x="501" y="585" type="line"/>
      <point x="483" y="596"/>
      <point x="443" y="606"/>
      <point x="417" y="606" type="qcurve"/>
      <point x="374" y="606"/>
      <point x="300" y="578"/>
      <point x="240" y="525"/>
      <point x="196" y="448"/>
      <point x="183" y="400" type="qcurve"/>
      <point x="408" y="400" type="line"/>
      <point x="404" y="367" type="line"/>
      <point x="176" y="367" type="line"/>
      <point x="171" y="343"/>
      <point x="170" y="319" type="qcurve"/>
      <point x="169" y="312"/>
      <point x="168" y="299"/>
      <point x="168" y="293" type="qcurve"/>
      <point x="395" y="293" type="line"/>
      <point x="391" y="260" type="line"/>
      <point x="169" y="260" type="line"/>
      <point x="172" y="208"/>
      <point x="204" y="129"/>
      <point x="253" y="76"/>
      <point x="314" y="49"/>
      <point x="346" y="49" type="qcurve"/>
      <point x="369" y="49"/>
      <point x="416" y="63"/>
      <point x="439" y="75" type="qcurve"/>
      <point x="464" y="24" type="line"/>
      <point x="405" y="-8"/>
      <point x="338" y="-8" type="qcurve"/>
      <point x="290" y="-8"/>
      <point x="207" y="31"/>
      <point x="145" y="101"/>
      <point x="109" y="199"/>
      <point x="108" y="260" type="qcurve"/>
      <point x="40" y="260" type="line"/>
      <point x="45" y="293" type="line"/>
      <point x="109" y="293" type="line"/>
      <point x="109" y="296"/>
      <point x="109" y="303"/>
      <point x="110" y="307" type="qcurve"/>
      <point x="111" y="337"/>
      <point x="116" y="367" type="qcurve"/>
      <point x="52" y="367" type="line"/>
    </contour>
  </outline>
</glyph>
<glyph name="radical" format="1">
  <advance width="539"/>
  <unicode hex="221A"/>
  <outline>
    <contour>
      <point x="39" y="361" type="line"/>
      <point x="151" y="361" type="line"/>
      <point x="231" y="124" type="line"/>
      <point x="512" y="609" type="line"/>
      <point x="555" y="609" type="line"/>
      <point x="219" y="24" type="line"/>
      <point x="119" y="324" type="line"/>
      <point x="34" y="324" type="line"/>
    </contour>
  </outline>
</glyph>
<glyph name="greaterequal" format="1">
  <advance width="561"/>
  <unicode hex="2265"/>
  <outline>
    <contour>
      <point x="85" y="297" type="line"/>
      <point x="167" y="341"/>
      <point x="331" y="428"/>
      <point x="412" y="473" type="qcurve"/>
      <point x="341" y="518"/>
      <point x="200" y="605"/>
      <point x="128" y="649" type="qcurve"/>
      <point x="138" y="727" type="line"/>
      <point x="241" y="664"/>
      <point x="445" y="536"/>
      <point x="548" y="473" type="qcurve"/>
      <point x="429" y="409"/>
      <point x="195" y="282"/>
      <point x="75" y="218" type="qcurve"/>
    </contour>
    <contour>
      <point x="64" y="131" type="line"/>
      <point x="427" y="131" type="line"/>
      <point x="420" y="74" type="line"/>
      <point x="57" y="74" type="line"/>
    </contour>
  </outline>
</glyph>
